<?xml version="1.0" encoding="utf-8" standalone="no"?>
<!DOCTYPE svg PUBLIC "-//W3C//DTD SVG 1.1//EN"
  "http://www.w3.org/Graphics/SVG/1.1/DTD/svg11.dtd">
<svg height="288pt" version="1.1" viewBox="0 0 432 288" width="432pt" xmlns="http://www.w3.org/2000/svg" xmlns:xlink="http://www.w3.org/1999/xlink">
 <metadata>
  <rdf:RDF xmlns:cc="http://creativecommons.org/ns#" xmlns:dc="http://purl.org/dc/elements/1.1/" xmlns:rdf="http://www.w3.org/1999/02/22-rdf-syntax-ns#">
   <cc:Work>
    <dc:type rdf:resource="http://purl.org/dc/dcmitype/StillImage"/>
    <dc:date>2021-08-03T02:11:01.874560</dc:date>
    <dc:format>image/svg+xml</dc:format>
    <dc:creator>
     <cc:Agent>
      <dc:title>Matplotlib v3.4.2, https://matplotlib.org/</dc:title>
     </cc:Agent>
    </dc:creator>
   </cc:Work>
  </rdf:RDF>
 </metadata>
 <defs>
  <style type="text/css">*{stroke-linecap:butt;stroke-linejoin:round;}</style>
 </defs>
 <g id="figure_1">
  <g id="patch_1">
   <path d="M 0 288 
L 432 288 
L 432 0 
L 0 0 
z
" style="fill:#ffffff;"/>
  </g>
  <g id="axes_1">
   <g id="patch_2">
    <path d="M 39.858205 258.225354 
L 429.165354 258.225354 
L 429.165354 2.834646 
L 39.858205 2.834646 
z
" style="fill:#ffffff;"/>
   </g>
   <g id="matplotlib.axis_1">
    <g id="xtick_1">
     <g id="line2d_1">
      <path clip-path="url(#pa7c775bdb8)" d="M 50.876332 258.225354 
L 50.876332 2.834646 
" style="fill:none;stroke:#000000;stroke-linecap:square;stroke-opacity:0.1;stroke-width:0.5;"/>
     </g>
     <g id="line2d_2">
      <defs>
       <path d="M 0 0 
L 0 -2.5 
" id="m42466d6cb4" style="stroke:#000000;stroke-width:0.5;"/>
      </defs>
      <g>
       <use style="stroke:#000000;stroke-width:0.5;" x="50.876332" xlink:href="#m42466d6cb4" y="258.225354"/>
      </g>
     </g>
     <g id="text_1">
      <!-- $\mathregular{0.00}$ -->
      <g transform="translate(41.956332 267.804104)scale(0.08 -0.08)">
       <defs>
        <path d="M 2034 4250 
Q 1547 4250 1301 3770 
Q 1056 3291 1056 2328 
Q 1056 1369 1301 889 
Q 1547 409 2034 409 
Q 2525 409 2770 889 
Q 3016 1369 3016 2328 
Q 3016 3291 2770 3770 
Q 2525 4250 2034 4250 
z
M 2034 4750 
Q 2819 4750 3233 4129 
Q 3647 3509 3647 2328 
Q 3647 1150 3233 529 
Q 2819 -91 2034 -91 
Q 1250 -91 836 529 
Q 422 1150 422 2328 
Q 422 3509 836 4129 
Q 1250 4750 2034 4750 
z
" id="DejaVuSans-30" transform="scale(0.015625)"/>
        <path d="M 684 794 
L 1344 794 
L 1344 0 
L 684 0 
L 684 794 
z
" id="DejaVuSans-2e" transform="scale(0.015625)"/>
       </defs>
       <use transform="translate(0 0.78125)" xlink:href="#DejaVuSans-30"/>
       <use transform="translate(63.623047 0.78125)" xlink:href="#DejaVuSans-2e"/>
       <use transform="translate(95.410156 0.78125)" xlink:href="#DejaVuSans-30"/>
       <use transform="translate(159.033203 0.78125)" xlink:href="#DejaVuSans-30"/>
      </g>
     </g>
    </g>
    <g id="xtick_2">
     <g id="line2d_3">
      <path clip-path="url(#pa7c775bdb8)" d="M 142.694056 258.225354 
L 142.694056 2.834646 
" style="fill:none;stroke:#000000;stroke-linecap:square;stroke-opacity:0.1;stroke-width:0.5;"/>
     </g>
     <g id="line2d_4">
      <g>
       <use style="stroke:#000000;stroke-width:0.5;" x="142.694056" xlink:href="#m42466d6cb4" y="258.225354"/>
      </g>
     </g>
     <g id="text_2">
      <!-- $\mathregular{0.25}$ -->
      <g transform="translate(133.974056 267.804104)scale(0.08 -0.08)">
       <defs>
        <path d="M 1228 531 
L 3431 531 
L 3431 0 
L 469 0 
L 469 531 
Q 828 903 1448 1529 
Q 2069 2156 2228 2338 
Q 2531 2678 2651 2914 
Q 2772 3150 2772 3378 
Q 2772 3750 2511 3984 
Q 2250 4219 1831 4219 
Q 1534 4219 1204 4116 
Q 875 4013 500 3803 
L 500 4441 
Q 881 4594 1212 4672 
Q 1544 4750 1819 4750 
Q 2544 4750 2975 4387 
Q 3406 4025 3406 3419 
Q 3406 3131 3298 2873 
Q 3191 2616 2906 2266 
Q 2828 2175 2409 1742 
Q 1991 1309 1228 531 
z
" id="DejaVuSans-32" transform="scale(0.015625)"/>
        <path d="M 691 4666 
L 3169 4666 
L 3169 4134 
L 1269 4134 
L 1269 2991 
Q 1406 3038 1543 3061 
Q 1681 3084 1819 3084 
Q 2600 3084 3056 2656 
Q 3513 2228 3513 1497 
Q 3513 744 3044 326 
Q 2575 -91 1722 -91 
Q 1428 -91 1123 -41 
Q 819 9 494 109 
L 494 744 
Q 775 591 1075 516 
Q 1375 441 1709 441 
Q 2250 441 2565 725 
Q 2881 1009 2881 1497 
Q 2881 1984 2565 2268 
Q 2250 2553 1709 2553 
Q 1456 2553 1204 2497 
Q 953 2441 691 2322 
L 691 4666 
z
" id="DejaVuSans-35" transform="scale(0.015625)"/>
       </defs>
       <use transform="translate(0 0.78125)" xlink:href="#DejaVuSans-30"/>
       <use transform="translate(63.623047 0.78125)" xlink:href="#DejaVuSans-2e"/>
       <use transform="translate(89.910156 0.78125)" xlink:href="#DejaVuSans-32"/>
       <use transform="translate(153.533203 0.78125)" xlink:href="#DejaVuSans-35"/>
      </g>
     </g>
    </g>
    <g id="xtick_3">
     <g id="line2d_5">
      <path clip-path="url(#pa7c775bdb8)" d="M 234.51178 258.225354 
L 234.51178 2.834646 
" style="fill:none;stroke:#000000;stroke-linecap:square;stroke-opacity:0.1;stroke-width:0.5;"/>
     </g>
     <g id="line2d_6">
      <g>
       <use style="stroke:#000000;stroke-width:0.5;" x="234.51178" xlink:href="#m42466d6cb4" y="258.225354"/>
      </g>
     </g>
     <g id="text_3">
      <!-- $\mathregular{0.50}$ -->
      <g transform="translate(225.59178 267.804104)scale(0.08 -0.08)">
       <use transform="translate(0 0.78125)" xlink:href="#DejaVuSans-30"/>
       <use transform="translate(63.623047 0.78125)" xlink:href="#DejaVuSans-2e"/>
       <use transform="translate(95.410156 0.78125)" xlink:href="#DejaVuSans-35"/>
       <use transform="translate(159.033203 0.78125)" xlink:href="#DejaVuSans-30"/>
      </g>
     </g>
    </g>
    <g id="xtick_4">
     <g id="line2d_7">
      <path clip-path="url(#pa7c775bdb8)" d="M 326.329504 258.225354 
L 326.329504 2.834646 
" style="fill:none;stroke:#000000;stroke-linecap:square;stroke-opacity:0.1;stroke-width:0.5;"/>
     </g>
     <g id="line2d_8">
      <g>
       <use style="stroke:#000000;stroke-width:0.5;" x="326.329504" xlink:href="#m42466d6cb4" y="258.225354"/>
      </g>
     </g>
     <g id="text_4">
      <!-- $\mathregular{0.75}$ -->
      <g transform="translate(317.729504 267.804104)scale(0.08 -0.08)">
       <defs>
        <path d="M 525 4666 
L 3525 4666 
L 3525 4397 
L 1831 0 
L 1172 0 
L 2766 4134 
L 525 4134 
L 525 4666 
z
" id="DejaVuSans-37" transform="scale(0.015625)"/>
       </defs>
       <use transform="translate(0 0.78125)" xlink:href="#DejaVuSans-30"/>
       <use transform="translate(63.623047 0.78125)" xlink:href="#DejaVuSans-2e"/>
       <use transform="translate(87.660156 0.78125)" xlink:href="#DejaVuSans-37"/>
       <use transform="translate(151.283203 0.78125)" xlink:href="#DejaVuSans-35"/>
      </g>
     </g>
    </g>
    <g id="xtick_5">
     <g id="line2d_9">
      <path clip-path="url(#pa7c775bdb8)" d="M 418.147227 258.225354 
L 418.147227 2.834646 
" style="fill:none;stroke:#000000;stroke-linecap:square;stroke-opacity:0.1;stroke-width:0.5;"/>
     </g>
     <g id="line2d_10">
      <g>
       <use style="stroke:#000000;stroke-width:0.5;" x="418.147227" xlink:href="#m42466d6cb4" y="258.225354"/>
      </g>
     </g>
     <g id="text_5">
      <!-- $\mathregular{1.00}$ -->
      <g transform="translate(409.227227 267.804104)scale(0.08 -0.08)">
       <defs>
        <path d="M 794 531 
L 1825 531 
L 1825 4091 
L 703 3866 
L 703 4441 
L 1819 4666 
L 2450 4666 
L 2450 531 
L 3481 531 
L 3481 0 
L 794 0 
L 794 531 
z
" id="DejaVuSans-31" transform="scale(0.015625)"/>
       </defs>
       <use transform="translate(0 0.78125)" xlink:href="#DejaVuSans-31"/>
       <use transform="translate(63.623047 0.78125)" xlink:href="#DejaVuSans-2e"/>
       <use transform="translate(95.410156 0.78125)" xlink:href="#DejaVuSans-30"/>
       <use transform="translate(159.033203 0.78125)" xlink:href="#DejaVuSans-30"/>
      </g>
     </g>
    </g>
    <g id="text_6">
     <!-- t -->
     <g transform="translate(232.355608 281.826136)scale(0.11 -0.11)">
      <defs>
       <path d="M 1172 4494 
L 1172 3500 
L 2356 3500 
L 2356 3053 
L 1172 3053 
L 1172 1153 
Q 1172 725 1289 603 
Q 1406 481 1766 481 
L 2356 481 
L 2356 0 
L 1766 0 
Q 1100 0 847 248 
Q 594 497 594 1153 
L 594 3053 
L 172 3053 
L 172 3500 
L 594 3500 
L 594 4494 
L 1172 4494 
z
" id="DejaVuSans-74" transform="scale(0.015625)"/>
      </defs>
      <use xlink:href="#DejaVuSans-74"/>
     </g>
    </g>
   </g>
   <g id="matplotlib.axis_2">
    <g id="ytick_1">
     <g id="line2d_11">
      <path clip-path="url(#pa7c775bdb8)" d="M 39.858205 240.27081 
L 429.165354 240.27081 
" style="fill:none;stroke:#000000;stroke-linecap:square;stroke-opacity:0.1;stroke-width:0.5;"/>
     </g>
     <g id="line2d_12">
      <defs>
       <path d="M 0 0 
L 2.5 0 
" id="mfde2306826" style="stroke:#000000;stroke-width:0.5;"/>
      </defs>
      <g>
       <use style="stroke:#000000;stroke-width:0.5;" x="39.858205" xlink:href="#mfde2306826" y="240.27081"/>
      </g>
     </g>
     <g id="text_7">
      <!-- $\mathregular{0.00}$ -->
      <g transform="translate(18.518205 243.310185)scale(0.08 -0.08)">
       <use transform="translate(0 0.78125)" xlink:href="#DejaVuSans-30"/>
       <use transform="translate(63.623047 0.78125)" xlink:href="#DejaVuSans-2e"/>
       <use transform="translate(95.410156 0.78125)" xlink:href="#DejaVuSans-30"/>
       <use transform="translate(159.033203 0.78125)" xlink:href="#DejaVuSans-30"/>
      </g>
     </g>
    </g>
    <g id="ytick_2">
     <g id="line2d_13">
      <path clip-path="url(#pa7c775bdb8)" d="M 39.858205 194.229185 
L 429.165354 194.229185 
" style="fill:none;stroke:#000000;stroke-linecap:square;stroke-opacity:0.1;stroke-width:0.5;"/>
     </g>
     <g id="line2d_14">
      <g>
       <use style="stroke:#000000;stroke-width:0.5;" x="39.858205" xlink:href="#mfde2306826" y="194.229185"/>
      </g>
     </g>
     <g id="text_8">
      <!-- $\mathregular{0.05}$ -->
      <g transform="translate(18.518205 197.26856)scale(0.08 -0.08)">
       <use transform="translate(0 0.78125)" xlink:href="#DejaVuSans-30"/>
       <use transform="translate(63.623047 0.78125)" xlink:href="#DejaVuSans-2e"/>
       <use transform="translate(95.410156 0.78125)" xlink:href="#DejaVuSans-30"/>
       <use transform="translate(159.033203 0.78125)" xlink:href="#DejaVuSans-35"/>
      </g>
     </g>
    </g>
    <g id="ytick_3">
     <g id="line2d_15">
      <path clip-path="url(#pa7c775bdb8)" d="M 39.858205 148.18756 
L 429.165354 148.18756 
" style="fill:none;stroke:#000000;stroke-linecap:square;stroke-opacity:0.1;stroke-width:0.5;"/>
     </g>
     <g id="line2d_16">
      <g>
       <use style="stroke:#000000;stroke-width:0.5;" x="39.858205" xlink:href="#mfde2306826" y="148.18756"/>
      </g>
     </g>
     <g id="text_9">
      <!-- $\mathregular{0.10}$ -->
      <g transform="translate(18.518205 151.226935)scale(0.08 -0.08)">
       <use transform="translate(0 0.78125)" xlink:href="#DejaVuSans-30"/>
       <use transform="translate(63.623047 0.78125)" xlink:href="#DejaVuSans-2e"/>
       <use transform="translate(95.410156 0.78125)" xlink:href="#DejaVuSans-31"/>
       <use transform="translate(159.033203 0.78125)" xlink:href="#DejaVuSans-30"/>
      </g>
     </g>
    </g>
    <g id="ytick_4">
     <g id="line2d_17">
      <path clip-path="url(#pa7c775bdb8)" d="M 39.858205 102.145935 
L 429.165354 102.145935 
" style="fill:none;stroke:#000000;stroke-linecap:square;stroke-opacity:0.1;stroke-width:0.5;"/>
     </g>
     <g id="line2d_18">
      <g>
       <use style="stroke:#000000;stroke-width:0.5;" x="39.858205" xlink:href="#mfde2306826" y="102.145935"/>
      </g>
     </g>
     <g id="text_10">
      <!-- $\mathregular{0.15}$ -->
      <g transform="translate(18.518205 105.18531)scale(0.08 -0.08)">
       <use transform="translate(0 0.78125)" xlink:href="#DejaVuSans-30"/>
       <use transform="translate(63.623047 0.78125)" xlink:href="#DejaVuSans-2e"/>
       <use transform="translate(95.410156 0.78125)" xlink:href="#DejaVuSans-31"/>
       <use transform="translate(159.033203 0.78125)" xlink:href="#DejaVuSans-35"/>
      </g>
     </g>
    </g>
    <g id="ytick_5">
     <g id="line2d_19">
      <path clip-path="url(#pa7c775bdb8)" d="M 39.858205 56.10431 
L 429.165354 56.10431 
" style="fill:none;stroke:#000000;stroke-linecap:square;stroke-opacity:0.1;stroke-width:0.5;"/>
     </g>
     <g id="line2d_20">
      <g>
       <use style="stroke:#000000;stroke-width:0.5;" x="39.858205" xlink:href="#mfde2306826" y="56.10431"/>
      </g>
     </g>
     <g id="text_11">
      <!-- $\mathregular{0.20}$ -->
      <g transform="translate(18.918205 59.143685)scale(0.08 -0.08)">
       <use transform="translate(0 0.78125)" xlink:href="#DejaVuSans-30"/>
       <use transform="translate(63.623047 0.78125)" xlink:href="#DejaVuSans-2e"/>
       <use transform="translate(89.910156 0.78125)" xlink:href="#DejaVuSans-32"/>
       <use transform="translate(153.533203 0.78125)" xlink:href="#DejaVuSans-30"/>
      </g>
     </g>
    </g>
    <g id="ytick_6">
     <g id="line2d_21">
      <path clip-path="url(#pa7c775bdb8)" d="M 39.858205 10.062685 
L 429.165354 10.062685 
" style="fill:none;stroke:#000000;stroke-linecap:square;stroke-opacity:0.1;stroke-width:0.5;"/>
     </g>
     <g id="line2d_22">
      <g>
       <use style="stroke:#000000;stroke-width:0.5;" x="39.858205" xlink:href="#mfde2306826" y="10.062685"/>
      </g>
     </g>
     <g id="text_12">
      <!-- $\mathregular{0.25}$ -->
      <g transform="translate(18.918205 13.10206)scale(0.08 -0.08)">
       <use transform="translate(0 0.78125)" xlink:href="#DejaVuSans-30"/>
       <use transform="translate(63.623047 0.78125)" xlink:href="#DejaVuSans-2e"/>
       <use transform="translate(89.910156 0.78125)" xlink:href="#DejaVuSans-32"/>
       <use transform="translate(153.533203 0.78125)" xlink:href="#DejaVuSans-35"/>
      </g>
     </g>
    </g>
    <g id="text_13">
     <!-- y -->
     <g transform="translate(12.230549 133.785312)rotate(-90)scale(0.11 -0.11)">
      <defs>
       <path d="M 2059 -325 
Q 1816 -950 1584 -1140 
Q 1353 -1331 966 -1331 
L 506 -1331 
L 506 -850 
L 844 -850 
Q 1081 -850 1212 -737 
Q 1344 -625 1503 -206 
L 1606 56 
L 191 3500 
L 800 3500 
L 1894 763 
L 2988 3500 
L 3597 3500 
L 2059 -325 
z
" id="DejaVuSans-79" transform="scale(0.015625)"/>
      </defs>
      <use xlink:href="#DejaVuSans-79"/>
     </g>
    </g>
   </g>
   <g id="PathCollection_1">
    <defs>
     <path d="M 0 2 
C 0.530406 2 1.03916 1.789267 1.414214 1.414214 
C 1.789267 1.03916 2 0.530406 2 0 
C 2 -0.530406 1.789267 -1.03916 1.414214 -1.414214 
C 1.03916 -1.789267 0.530406 -2 0 -2 
C -0.530406 -2 -1.03916 -1.789267 -1.414214 -1.414214 
C -1.789267 -1.03916 -2 -0.530406 -2 0 
C -2 0.530406 -1.789267 1.03916 -1.414214 1.414214 
C -1.03916 1.789267 -0.530406 2 0 2 
z
" id="m9de92c6d81" style="stroke:#000000;"/>
    </defs>
    <g clip-path="url(#pa7c775bdb8)">
     <use style="fill:#009afa;stroke:#000000;" x="353.37809" xlink:href="#m9de92c6d81" y="140.065562"/>
     <use style="fill:#009afa;stroke:#000000;" x="385.223793" xlink:href="#m9de92c6d81" y="79.893734"/>
     <use style="fill:#009afa;stroke:#000000;" x="111.31656" xlink:href="#m9de92c6d81" y="128.454806"/>
     <use style="fill:#009afa;stroke:#000000;" x="116.004056" xlink:href="#m9de92c6d81" y="165.525206"/>
     <use style="fill:#009afa;stroke:#000000;" x="153.30088" xlink:href="#m9de92c6d81" y="206.049223"/>
     <use style="fill:#009afa;stroke:#000000;" x="125.60735" xlink:href="#m9de92c6d81" y="167.4081"/>
     <use style="fill:#009afa;stroke:#000000;" x="66.412503" xlink:href="#m9de92c6d81" y="51.916973"/>
     <use style="fill:#009afa;stroke:#000000;" x="75.949643" xlink:href="#m9de92c6d81" y="63.92123"/>
     <use style="fill:#009afa;stroke:#000000;" x="183.765369" xlink:href="#m9de92c6d81" y="229.6772"/>
     <use style="fill:#009afa;stroke:#000000;" x="408.310392" xlink:href="#m9de92c6d81" y="41.136944"/>
     <use style="fill:#009afa;stroke:#000000;" x="266.027865" xlink:href="#m9de92c6d81" y="233.769189"/>
     <use style="fill:#009afa;stroke:#000000;" x="248.94159" xlink:href="#m9de92c6d81" y="250.997315"/>
     <use style="fill:#009afa;stroke:#000000;" x="146.379932" xlink:href="#m9de92c6d81" y="191.690678"/>
     <use style="fill:#009afa;stroke:#000000;" x="385.10994" xlink:href="#m9de92c6d81" y="96.102808"/>
     <use style="fill:#009afa;stroke:#000000;" x="112.223865" xlink:href="#m9de92c6d81" y="140.154777"/>
     <use style="fill:#009afa;stroke:#000000;" x="291.603458" xlink:href="#m9de92c6d81" y="230.652809"/>
     <use style="fill:#009afa;stroke:#000000;" x="262.383011" xlink:href="#m9de92c6d81" y="249.130759"/>
     <use style="fill:#009afa;stroke:#000000;" x="369.769831" xlink:href="#m9de92c6d81" y="126.681523"/>
     <use style="fill:#009afa;stroke:#000000;" x="406.320941" xlink:href="#m9de92c6d81" y="56.793418"/>
     <use style="fill:#009afa;stroke:#000000;" x="332.826648" xlink:href="#m9de92c6d81" y="178.642437"/>
     <use style="fill:#009afa;stroke:#000000;" x="223.237926" xlink:href="#m9de92c6d81" y="227.075489"/>
     <use style="fill:#009afa;stroke:#000000;" x="73.782121" xlink:href="#m9de92c6d81" y="56.472343"/>
     <use style="fill:#009afa;stroke:#000000;" x="180.570253" xlink:href="#m9de92c6d81" y="230.084625"/>
     <use style="fill:#009afa;stroke:#000000;" x="332.794168" xlink:href="#m9de92c6d81" y="166.813678"/>
     <use style="fill:#009afa;stroke:#000000;" x="66.720774" xlink:href="#m9de92c6d81" y="46.670259"/>
     <use style="fill:#009afa;stroke:#000000;" x="149.299289" xlink:href="#m9de92c6d81" y="193.740959"/>
     <use style="fill:#009afa;stroke:#000000;" x="75.427085" xlink:href="#m9de92c6d81" y="54.202655"/>
     <use style="fill:#009afa;stroke:#000000;" x="108.40441" xlink:href="#m9de92c6d81" y="135.783987"/>
     <use style="fill:#009afa;stroke:#000000;" x="273.184208" xlink:href="#m9de92c6d81" y="219.96089"/>
     <use style="fill:#009afa;stroke:#000000;" x="100.731358" xlink:href="#m9de92c6d81" y="120.404725"/>
     <use style="fill:#009afa;stroke:#000000;" x="358.69259" xlink:href="#m9de92c6d81" y="132.306378"/>
     <use style="fill:#009afa;stroke:#000000;" x="386.823436" xlink:href="#m9de92c6d81" y="113.829092"/>
     <use style="fill:#009afa;stroke:#000000;" x="161.085131" xlink:href="#m9de92c6d81" y="220.253886"/>
     <use style="fill:#009afa;stroke:#000000;" x="316.35801" xlink:href="#m9de92c6d81" y="199.406376"/>
     <use style="fill:#009afa;stroke:#000000;" x="94.821238" xlink:href="#m9de92c6d81" y="105.977625"/>
     <use style="fill:#009afa;stroke:#000000;" x="332.598683" xlink:href="#m9de92c6d81" y="155.221057"/>
     <use style="fill:#009afa;stroke:#000000;" x="345.399525" xlink:href="#m9de92c6d81" y="142.306757"/>
     <use style="fill:#009afa;stroke:#000000;" x="63.857356" xlink:href="#m9de92c6d81" y="60.874065"/>
     <use style="fill:#009afa;stroke:#000000;" x="228.878036" xlink:href="#m9de92c6d81" y="234.927483"/>
     <use style="fill:#009afa;stroke:#000000;" x="381.126008" xlink:href="#m9de92c6d81" y="98.765176"/>
     <use style="fill:#009afa;stroke:#000000;" x="400.404628" xlink:href="#m9de92c6d81" y="56.790247"/>
     <use style="fill:#009afa;stroke:#000000;" x="345.103847" xlink:href="#m9de92c6d81" y="155.169035"/>
     <use style="fill:#009afa;stroke:#000000;" x="96.536452" xlink:href="#m9de92c6d81" y="124.285179"/>
     <use style="fill:#009afa;stroke:#000000;" x="92.843923" xlink:href="#m9de92c6d81" y="99.195295"/>
     <use style="fill:#009afa;stroke:#000000;" x="80.094374" xlink:href="#m9de92c6d81" y="62.049775"/>
     <use style="fill:#009afa;stroke:#000000;" x="336.126169" xlink:href="#m9de92c6d81" y="167.586336"/>
     <use style="fill:#009afa;stroke:#000000;" x="89.37464" xlink:href="#m9de92c6d81" y="75.162721"/>
     <use style="fill:#009afa;stroke:#000000;" x="358.676881" xlink:href="#m9de92c6d81" y="135.778253"/>
     <use style="fill:#009afa;stroke:#000000;" x="118.49636" xlink:href="#m9de92c6d81" y="136.068134"/>
     <use style="fill:#009afa;stroke:#000000;" x="165.518146" xlink:href="#m9de92c6d81" y="196.54437"/>
    </g>
   </g>
   <g id="line2d_23">
    <path clip-path="url(#pa7c775bdb8)" d="M 50.876332 10.062685 
L 54.549041 19.178926 
L 58.22175 28.111002 
L 61.894459 36.85891 
L 65.567168 45.422653 
L 69.239877 53.802228 
L 72.912586 61.997638 
L 76.585295 70.00888 
L 80.258004 77.835957 
L 83.930713 85.478866 
L 87.603422 92.93761 
L 91.276131 100.212187 
L 94.94884 107.302597 
L 98.621548 114.208841 
L 102.294257 120.930918 
L 105.966966 127.468829 
L 109.639675 133.822573 
L 113.312384 139.992151 
L 116.985093 145.977562 
L 120.657802 151.778807 
L 124.330511 157.395885 
L 128.00322 162.828797 
L 131.675929 168.077542 
L 135.348638 173.142121 
L 139.021347 178.022533 
L 142.694056 182.718779 
L 146.366765 187.230858 
L 150.039474 191.558771 
L 153.712183 195.702517 
L 157.384892 199.662097 
L 161.057601 203.43751 
L 164.73031 207.028757 
L 168.403019 210.435837 
L 172.075728 213.658751 
L 175.748437 216.697498 
L 179.421145 219.552079 
L 183.093854 222.222493 
L 186.766563 224.708741 
L 190.439272 227.010822 
L 194.111981 229.128737 
L 197.78469 231.062485 
L 201.457399 232.812067 
L 205.130108 234.377482 
L 208.802817 235.758731 
L 212.475526 236.955813 
L 216.148235 237.968729 
L 219.820944 238.797478 
L 223.493653 239.442061 
L 227.166362 239.902477 
L 230.839071 240.178727 
L 234.51178 240.27081 
L 238.184489 240.178727 
L 241.857198 239.902477 
L 245.529907 239.442061 
L 249.202616 238.797478 
L 252.875325 237.968729 
L 256.548034 236.955813 
L 260.220742 235.758731 
L 263.893451 234.377482 
L 267.56616 232.812067 
L 271.238869 231.062485 
L 274.911578 229.128737 
L 278.584287 227.010822 
L 282.256996 224.708741 
L 285.929705 222.222493 
L 289.602414 219.552079 
L 293.275123 216.697498 
L 296.947832 213.658751 
L 300.620541 210.435837 
L 304.29325 207.028757 
L 307.965959 203.43751 
L 311.638668 199.662097 
L 315.311377 195.702517 
L 318.984086 191.558771 
L 322.656795 187.230858 
L 326.329504 182.718779 
L 330.002213 178.022533 
L 333.674922 173.142121 
L 337.34763 168.077542 
L 341.020339 162.828797 
L 344.693048 157.395885 
L 348.365757 151.778807 
L 352.038466 145.977562 
L 355.711175 139.992151 
L 359.383884 133.822573 
L 363.056593 127.468829 
L 366.729302 120.930918 
L 370.402011 114.208841 
L 374.07472 107.302597 
L 377.747429 100.212187 
L 381.420138 92.93761 
L 385.092847 85.478866 
L 388.765556 77.835957 
L 392.438265 70.00888 
L 396.110974 61.997638 
L 399.783683 53.802228 
L 403.456392 45.422653 
L 407.129101 36.85891 
L 410.80181 28.111002 
L 414.474519 19.178926 
L 418.147227 10.062685 
" style="fill:none;stroke:#ff0000;stroke-width:2;"/>
   </g>
   <g id="patch_3">
    <path d="M 39.858205 258.225354 
L 39.858205 2.834646 
" style="fill:none;stroke:#000000;stroke-linecap:square;stroke-linejoin:miter;"/>
   </g>
   <g id="patch_4">
    <path d="M 39.858205 258.225354 
L 429.165354 258.225354 
" style="fill:none;stroke:#000000;stroke-linecap:square;stroke-linejoin:miter;"/>
   </g>
   <g id="line2d_24">
    <path clip-path="url(#pa7c775bdb8)" d="M 50.876332 10.574783 
L 54.549041 19.645776 
L 58.22175 28.534608 
L 61.894459 37.241281 
L 65.567168 45.765793 
L 69.239877 54.108145 
L 72.912586 62.268338 
L 76.585295 70.24637 
L 80.258004 78.042242 
L 83.930713 85.655954 
L 87.603422 93.087506 
L 91.276131 100.336897 
L 94.94884 107.404129 
L 98.621548 114.289201 
L 102.294257 120.992112 
L 105.966966 127.512864 
L 109.639675 133.851456 
L 113.312384 140.007887 
L 116.985093 145.982158 
L 120.657802 151.774269 
L 124.330511 157.384221 
L 128.00322 162.812012 
L 131.675929 168.057643 
L 135.348638 173.121114 
L 139.021347 178.002425 
L 142.694056 182.701575 
L 146.366765 187.218566 
L 150.039474 191.553397 
L 153.712183 195.706067 
L 157.384892 199.676578 
L 161.057601 203.464928 
L 164.73031 207.071119 
L 168.403019 210.495149 
L 172.075728 213.737019 
L 175.748437 216.79673 
L 179.421145 219.67428 
L 183.093854 222.36967 
L 186.766563 224.8829 
L 190.439272 227.213969 
L 194.111981 229.362879 
L 197.78469 231.329629 
L 201.457399 233.114219 
L 205.130108 234.716648 
L 208.802817 236.136918 
L 212.475526 237.375027 
L 216.148235 238.430977 
L 219.820944 239.304766 
L 223.493653 239.996395 
L 227.166362 240.505864 
L 230.839071 240.833173 
L 234.51178 240.978322 
L 238.184489 240.941311 
L 241.857198 240.72214 
L 245.529907 240.320809 
L 249.202616 239.737318 
L 252.875325 238.971666 
L 256.548034 238.023855 
L 260.220742 236.893883 
L 263.893451 235.581752 
L 267.56616 234.08746 
L 271.238869 232.411008 
L 274.911578 230.552396 
L 278.584287 228.511625 
L 282.256996 226.288693 
L 285.929705 223.883601 
L 289.602414 221.296348 
L 293.275123 218.526936 
L 296.947832 215.575364 
L 300.620541 212.441632 
L 304.29325 209.125739 
L 307.965959 205.627687 
L 311.638668 201.947474 
L 315.311377 198.085102 
L 318.984086 194.040569 
L 322.656795 189.813876 
L 326.329504 185.405024 
L 330.002213 180.814011 
L 333.674922 176.040838 
L 337.34763 171.085505 
L 341.020339 165.948012 
L 344.693048 160.628358 
L 348.365757 155.126545 
L 352.038466 149.442572 
L 355.711175 143.576438 
L 359.383884 137.528145 
L 363.056593 131.297691 
L 366.729302 124.885078 
L 370.402011 118.290304 
L 374.07472 111.51337 
L 377.747429 104.554276 
L 381.420138 97.413022 
L 385.092847 90.089609 
L 388.765556 82.584034 
L 392.438265 74.8963 
L 396.110974 67.026406 
L 399.783683 58.974352 
L 403.456392 50.740137 
L 407.129101 42.323763 
L 410.80181 33.725229 
L 414.474519 24.944534 
L 418.147227 15.981679 
" style="fill:none;stroke:#0000ff;stroke-dasharray:7.4,3.2;stroke-dashoffset:0;stroke-width:2;"/>
   </g>
   <g id="legend_1">
    <g id="patch_5">
     <path d="M 323.406604 50.862146 
L 425.165354 50.862146 
L 425.165354 6.834646 
L 323.406604 6.834646 
z
" style="fill:#ffffff;stroke:#000000;stroke-linejoin:miter;"/>
    </g>
    <g id="line2d_25">
     <path d="M 329.806604 16.513396 
L 345.806604 16.513396 
" style="fill:none;"/>
    </g>
    <g id="line2d_26">
     <defs>
      <path d="M 0 3.2 
C 0.84865 3.2 1.662656 2.862828 2.262742 2.262742 
C 2.862828 1.662656 3.2 0.84865 3.2 0 
C 3.2 -0.84865 2.862828 -1.662656 2.262742 -2.262742 
C 1.662656 -2.862828 0.84865 -3.2 0 -3.2 
C -0.84865 -3.2 -1.662656 -2.862828 -2.262742 -2.262742 
C -2.862828 -1.662656 -3.2 -0.84865 -3.2 0 
C -3.2 0.84865 -2.862828 1.662656 -2.262742 2.262742 
C -1.662656 2.862828 -0.84865 3.2 0 3.2 
z
" id="m21dd615c8d" style="stroke:#000000;stroke-width:1.6;"/>
     </defs>
     <g>
      <use style="fill:#009afa;stroke:#000000;stroke-width:1.6;" x="337.806604" xlink:href="#m21dd615c8d" y="16.513396"/>
     </g>
    </g>
    <g id="text_14">
     <!-- Observed Data -->
     <g transform="translate(352.206604 19.313396)scale(0.08 -0.08)">
      <defs>
       <path d="M 2522 4238 
Q 1834 4238 1429 3725 
Q 1025 3213 1025 2328 
Q 1025 1447 1429 934 
Q 1834 422 2522 422 
Q 3209 422 3611 934 
Q 4013 1447 4013 2328 
Q 4013 3213 3611 3725 
Q 3209 4238 2522 4238 
z
M 2522 4750 
Q 3503 4750 4090 4092 
Q 4678 3434 4678 2328 
Q 4678 1225 4090 567 
Q 3503 -91 2522 -91 
Q 1538 -91 948 565 
Q 359 1222 359 2328 
Q 359 3434 948 4092 
Q 1538 4750 2522 4750 
z
" id="DejaVuSans-4f" transform="scale(0.015625)"/>
       <path d="M 3116 1747 
Q 3116 2381 2855 2742 
Q 2594 3103 2138 3103 
Q 1681 3103 1420 2742 
Q 1159 2381 1159 1747 
Q 1159 1113 1420 752 
Q 1681 391 2138 391 
Q 2594 391 2855 752 
Q 3116 1113 3116 1747 
z
M 1159 2969 
Q 1341 3281 1617 3432 
Q 1894 3584 2278 3584 
Q 2916 3584 3314 3078 
Q 3713 2572 3713 1747 
Q 3713 922 3314 415 
Q 2916 -91 2278 -91 
Q 1894 -91 1617 61 
Q 1341 213 1159 525 
L 1159 0 
L 581 0 
L 581 4863 
L 1159 4863 
L 1159 2969 
z
" id="DejaVuSans-62" transform="scale(0.015625)"/>
       <path d="M 2834 3397 
L 2834 2853 
Q 2591 2978 2328 3040 
Q 2066 3103 1784 3103 
Q 1356 3103 1142 2972 
Q 928 2841 928 2578 
Q 928 2378 1081 2264 
Q 1234 2150 1697 2047 
L 1894 2003 
Q 2506 1872 2764 1633 
Q 3022 1394 3022 966 
Q 3022 478 2636 193 
Q 2250 -91 1575 -91 
Q 1294 -91 989 -36 
Q 684 19 347 128 
L 347 722 
Q 666 556 975 473 
Q 1284 391 1588 391 
Q 1994 391 2212 530 
Q 2431 669 2431 922 
Q 2431 1156 2273 1281 
Q 2116 1406 1581 1522 
L 1381 1569 
Q 847 1681 609 1914 
Q 372 2147 372 2553 
Q 372 3047 722 3315 
Q 1072 3584 1716 3584 
Q 2034 3584 2315 3537 
Q 2597 3491 2834 3397 
z
" id="DejaVuSans-73" transform="scale(0.015625)"/>
       <path d="M 3597 1894 
L 3597 1613 
L 953 1613 
Q 991 1019 1311 708 
Q 1631 397 2203 397 
Q 2534 397 2845 478 
Q 3156 559 3463 722 
L 3463 178 
Q 3153 47 2828 -22 
Q 2503 -91 2169 -91 
Q 1331 -91 842 396 
Q 353 884 353 1716 
Q 353 2575 817 3079 
Q 1281 3584 2069 3584 
Q 2775 3584 3186 3129 
Q 3597 2675 3597 1894 
z
M 3022 2063 
Q 3016 2534 2758 2815 
Q 2500 3097 2075 3097 
Q 1594 3097 1305 2825 
Q 1016 2553 972 2059 
L 3022 2063 
z
" id="DejaVuSans-65" transform="scale(0.015625)"/>
       <path d="M 2631 2963 
Q 2534 3019 2420 3045 
Q 2306 3072 2169 3072 
Q 1681 3072 1420 2755 
Q 1159 2438 1159 1844 
L 1159 0 
L 581 0 
L 581 3500 
L 1159 3500 
L 1159 2956 
Q 1341 3275 1631 3429 
Q 1922 3584 2338 3584 
Q 2397 3584 2469 3576 
Q 2541 3569 2628 3553 
L 2631 2963 
z
" id="DejaVuSans-72" transform="scale(0.015625)"/>
       <path d="M 191 3500 
L 800 3500 
L 1894 563 
L 2988 3500 
L 3597 3500 
L 2284 0 
L 1503 0 
L 191 3500 
z
" id="DejaVuSans-76" transform="scale(0.015625)"/>
       <path d="M 2906 2969 
L 2906 4863 
L 3481 4863 
L 3481 0 
L 2906 0 
L 2906 525 
Q 2725 213 2448 61 
Q 2172 -91 1784 -91 
Q 1150 -91 751 415 
Q 353 922 353 1747 
Q 353 2572 751 3078 
Q 1150 3584 1784 3584 
Q 2172 3584 2448 3432 
Q 2725 3281 2906 2969 
z
M 947 1747 
Q 947 1113 1208 752 
Q 1469 391 1925 391 
Q 2381 391 2643 752 
Q 2906 1113 2906 1747 
Q 2906 2381 2643 2742 
Q 2381 3103 1925 3103 
Q 1469 3103 1208 2742 
Q 947 2381 947 1747 
z
" id="DejaVuSans-64" transform="scale(0.015625)"/>
       <path id="DejaVuSans-20" transform="scale(0.015625)"/>
       <path d="M 1259 4147 
L 1259 519 
L 2022 519 
Q 2988 519 3436 956 
Q 3884 1394 3884 2338 
Q 3884 3275 3436 3711 
Q 2988 4147 2022 4147 
L 1259 4147 
z
M 628 4666 
L 1925 4666 
Q 3281 4666 3915 4102 
Q 4550 3538 4550 2338 
Q 4550 1131 3912 565 
Q 3275 0 1925 0 
L 628 0 
L 628 4666 
z
" id="DejaVuSans-44" transform="scale(0.015625)"/>
       <path d="M 2194 1759 
Q 1497 1759 1228 1600 
Q 959 1441 959 1056 
Q 959 750 1161 570 
Q 1363 391 1709 391 
Q 2188 391 2477 730 
Q 2766 1069 2766 1631 
L 2766 1759 
L 2194 1759 
z
M 3341 1997 
L 3341 0 
L 2766 0 
L 2766 531 
Q 2569 213 2275 61 
Q 1981 -91 1556 -91 
Q 1019 -91 701 211 
Q 384 513 384 1019 
Q 384 1609 779 1909 
Q 1175 2209 1959 2209 
L 2766 2209 
L 2766 2266 
Q 2766 2663 2505 2880 
Q 2244 3097 1772 3097 
Q 1472 3097 1187 3025 
Q 903 2953 641 2809 
L 641 3341 
Q 956 3463 1253 3523 
Q 1550 3584 1831 3584 
Q 2591 3584 2966 3190 
Q 3341 2797 3341 1997 
z
" id="DejaVuSans-61" transform="scale(0.015625)"/>
      </defs>
      <use xlink:href="#DejaVuSans-4f"/>
      <use x="78.710938" xlink:href="#DejaVuSans-62"/>
      <use x="142.1875" xlink:href="#DejaVuSans-73"/>
      <use x="194.287109" xlink:href="#DejaVuSans-65"/>
      <use x="255.810547" xlink:href="#DejaVuSans-72"/>
      <use x="296.923828" xlink:href="#DejaVuSans-76"/>
      <use x="356.103516" xlink:href="#DejaVuSans-65"/>
      <use x="417.626953" xlink:href="#DejaVuSans-64"/>
      <use x="481.103516" xlink:href="#DejaVuSans-20"/>
      <use x="512.890625" xlink:href="#DejaVuSans-44"/>
      <use x="589.892578" xlink:href="#DejaVuSans-61"/>
      <use x="651.171875" xlink:href="#DejaVuSans-74"/>
      <use x="690.380859" xlink:href="#DejaVuSans-61"/>
     </g>
    </g>
    <g id="line2d_27">
     <path d="M 329.806604 28.255896 
L 345.806604 28.255896 
" style="fill:none;stroke:#ff0000;stroke-linejoin:miter;"/>
    </g>
    <g id="line2d_28"/>
    <g id="text_15">
     <!-- True Curve -->
     <g transform="translate(352.206604 31.055896)scale(0.08 -0.08)">
      <defs>
       <path d="M -19 4666 
L 3928 4666 
L 3928 4134 
L 2272 4134 
L 2272 0 
L 1638 0 
L 1638 4134 
L -19 4134 
L -19 4666 
z
" id="DejaVuSans-54" transform="scale(0.015625)"/>
       <path d="M 544 1381 
L 544 3500 
L 1119 3500 
L 1119 1403 
Q 1119 906 1312 657 
Q 1506 409 1894 409 
Q 2359 409 2629 706 
Q 2900 1003 2900 1516 
L 2900 3500 
L 3475 3500 
L 3475 0 
L 2900 0 
L 2900 538 
Q 2691 219 2414 64 
Q 2138 -91 1772 -91 
Q 1169 -91 856 284 
Q 544 659 544 1381 
z
M 1991 3584 
L 1991 3584 
z
" id="DejaVuSans-75" transform="scale(0.015625)"/>
       <path d="M 4122 4306 
L 4122 3641 
Q 3803 3938 3442 4084 
Q 3081 4231 2675 4231 
Q 1875 4231 1450 3742 
Q 1025 3253 1025 2328 
Q 1025 1406 1450 917 
Q 1875 428 2675 428 
Q 3081 428 3442 575 
Q 3803 722 4122 1019 
L 4122 359 
Q 3791 134 3420 21 
Q 3050 -91 2638 -91 
Q 1578 -91 968 557 
Q 359 1206 359 2328 
Q 359 3453 968 4101 
Q 1578 4750 2638 4750 
Q 3056 4750 3426 4639 
Q 3797 4528 4122 4306 
z
" id="DejaVuSans-43" transform="scale(0.015625)"/>
      </defs>
      <use xlink:href="#DejaVuSans-54"/>
      <use x="46.333984" xlink:href="#DejaVuSans-72"/>
      <use x="87.447266" xlink:href="#DejaVuSans-75"/>
      <use x="150.826172" xlink:href="#DejaVuSans-65"/>
      <use x="212.349609" xlink:href="#DejaVuSans-20"/>
      <use x="244.136719" xlink:href="#DejaVuSans-43"/>
      <use x="313.960938" xlink:href="#DejaVuSans-75"/>
      <use x="377.339844" xlink:href="#DejaVuSans-72"/>
      <use x="418.453125" xlink:href="#DejaVuSans-76"/>
      <use x="477.632812" xlink:href="#DejaVuSans-65"/>
     </g>
    </g>
    <g id="line2d_29">
     <path d="M 329.806604 39.998396 
L 345.806604 39.998396 
" style="fill:none;stroke:#0000ff;stroke-dasharray:3.7,1.6;stroke-dashoffset:0;stroke-linejoin:miter;"/>
    </g>
    <g id="line2d_30"/>
    <g id="text_16">
     <!-- Estimated Curve -->
     <g transform="translate(352.206604 42.798396)scale(0.08 -0.08)">
      <defs>
       <path d="M 628 4666 
L 3578 4666 
L 3578 4134 
L 1259 4134 
L 1259 2753 
L 3481 2753 
L 3481 2222 
L 1259 2222 
L 1259 531 
L 3634 531 
L 3634 0 
L 628 0 
L 628 4666 
z
" id="DejaVuSans-45" transform="scale(0.015625)"/>
       <path d="M 603 3500 
L 1178 3500 
L 1178 0 
L 603 0 
L 603 3500 
z
M 603 4863 
L 1178 4863 
L 1178 4134 
L 603 4134 
L 603 4863 
z
" id="DejaVuSans-69" transform="scale(0.015625)"/>
       <path d="M 3328 2828 
Q 3544 3216 3844 3400 
Q 4144 3584 4550 3584 
Q 5097 3584 5394 3201 
Q 5691 2819 5691 2113 
L 5691 0 
L 5113 0 
L 5113 2094 
Q 5113 2597 4934 2840 
Q 4756 3084 4391 3084 
Q 3944 3084 3684 2787 
Q 3425 2491 3425 1978 
L 3425 0 
L 2847 0 
L 2847 2094 
Q 2847 2600 2669 2842 
Q 2491 3084 2119 3084 
Q 1678 3084 1418 2786 
Q 1159 2488 1159 1978 
L 1159 0 
L 581 0 
L 581 3500 
L 1159 3500 
L 1159 2956 
Q 1356 3278 1631 3431 
Q 1906 3584 2284 3584 
Q 2666 3584 2933 3390 
Q 3200 3197 3328 2828 
z
" id="DejaVuSans-6d" transform="scale(0.015625)"/>
      </defs>
      <use xlink:href="#DejaVuSans-45"/>
      <use x="63.183594" xlink:href="#DejaVuSans-73"/>
      <use x="115.283203" xlink:href="#DejaVuSans-74"/>
      <use x="154.492188" xlink:href="#DejaVuSans-69"/>
      <use x="182.275391" xlink:href="#DejaVuSans-6d"/>
      <use x="279.6875" xlink:href="#DejaVuSans-61"/>
      <use x="340.966797" xlink:href="#DejaVuSans-74"/>
      <use x="380.175781" xlink:href="#DejaVuSans-65"/>
      <use x="441.699219" xlink:href="#DejaVuSans-64"/>
      <use x="505.175781" xlink:href="#DejaVuSans-20"/>
      <use x="536.962891" xlink:href="#DejaVuSans-43"/>
      <use x="606.787109" xlink:href="#DejaVuSans-75"/>
      <use x="670.166016" xlink:href="#DejaVuSans-72"/>
      <use x="711.279297" xlink:href="#DejaVuSans-76"/>
      <use x="770.458984" xlink:href="#DejaVuSans-65"/>
     </g>
    </g>
   </g>
  </g>
 </g>
 <defs>
  <clipPath id="pa7c775bdb8">
   <rect height="255.390709" width="389.307149" x="39.858205" y="2.834646"/>
  </clipPath>
 </defs>
</svg>
