<?xml version="1.0" encoding="utf-8"?>
<svg xmlns="http://www.w3.org/2000/svg" xmlns:xlink="http://www.w3.org/1999/xlink" width="150" height="100" viewBox="0 0 600 400">
<defs>
  <clipPath id="clip140">
    <rect x="0" y="0" width="600" height="400"/>
  </clipPath>
</defs>
<path clip-path="url(#clip140)" d="
M0 400 L600 400 L600 0 L0 0  Z
  " fill="#ffffff" fill-rule="evenodd" fill-opacity="1"/>
<defs>
  <clipPath id="clip141">
    <rect x="120" y="0" width="421" height="400"/>
  </clipPath>
</defs>
<path clip-path="url(#clip140)" d="
M25.685 376.315 L588.189 376.315 L588.189 11.811 L25.685 11.811  Z
  " fill="#ffffff" fill-rule="evenodd" fill-opacity="1"/>
<defs>
  <clipPath id="clip142">
    <rect x="25" y="11" width="564" height="366"/>
  </clipPath>
</defs>
<polyline clip-path="url(#clip142)" style="stroke:#000000; stroke-width:0.5; stroke-opacity:0.1; fill:none" points="
  41.605,376.315 41.605,11.811 
  "/>
<polyline clip-path="url(#clip142)" style="stroke:#000000; stroke-width:0.5; stroke-opacity:0.1; fill:none" points="
  174.271,376.315 174.271,11.811 
  "/>
<polyline clip-path="url(#clip142)" style="stroke:#000000; stroke-width:0.5; stroke-opacity:0.1; fill:none" points="
  306.937,376.315 306.937,11.811 
  "/>
<polyline clip-path="url(#clip142)" style="stroke:#000000; stroke-width:0.5; stroke-opacity:0.1; fill:none" points="
  439.603,376.315 439.603,11.811 
  "/>
<polyline clip-path="url(#clip142)" style="stroke:#000000; stroke-width:0.5; stroke-opacity:0.1; fill:none" points="
  572.269,376.315 572.269,11.811 
  "/>
<polyline clip-path="url(#clip140)" style="stroke:#000000; stroke-width:1; stroke-opacity:1; fill:none" points="
  25.685,376.315 588.189,376.315 
  "/>
<polyline clip-path="url(#clip140)" style="stroke:#000000; stroke-width:1; stroke-opacity:1; fill:none" points="
  41.605,376.315 41.605,371.941 
  "/>
<polyline clip-path="url(#clip140)" style="stroke:#000000; stroke-width:1; stroke-opacity:1; fill:none" points="
  174.271,376.315 174.271,371.941 
  "/>
<polyline clip-path="url(#clip140)" style="stroke:#000000; stroke-width:1; stroke-opacity:1; fill:none" points="
  306.937,376.315 306.937,371.941 
  "/>
<polyline clip-path="url(#clip140)" style="stroke:#000000; stroke-width:1; stroke-opacity:1; fill:none" points="
  439.603,376.315 439.603,371.941 
  "/>
<polyline clip-path="url(#clip140)" style="stroke:#000000; stroke-width:1; stroke-opacity:1; fill:none" points="
  572.269,376.315 572.269,371.941 
  "/>
<path clip-path="url(#clip140)" d="M 0 0 M33.6073 383.613 Q32.7045 383.613 32.2474 384.504 Q31.796 385.389 31.796 387.172 Q31.796 388.948 32.2474 389.839 Q32.7045 390.725 33.6073 390.725 Q34.5159 390.725 34.9673 389.839 Q35.4244 388.948 35.4244 387.172 Q35.4244 385.389 34.9673 384.504 Q34.5159 383.613 33.6073 383.613 M33.6073 382.687 Q35.0599 382.687 35.8237 383.838 Q36.5934 384.984 36.5934 387.172 Q36.5934 389.353 35.8237 390.505 Q35.0599 391.651 33.6073 391.651 Q32.1548 391.651 31.3851 390.505 Q30.6212 389.353 30.6212 387.172 Q30.6212 384.984 31.3851 383.838 Q32.1548 382.687 33.6073 382.687 Z" fill="#000000" fill-rule="evenodd" fill-opacity="1" /><path clip-path="url(#clip140)" d="M 0 0 M37.8608 390.013 L39.0818 390.013 L39.0818 391.483 L37.8608 391.483 L37.8608 390.013 Z" fill="#000000" fill-rule="evenodd" fill-opacity="1" /><path clip-path="url(#clip140)" d="M 0 0 M42.8492 383.613 Q41.9464 383.613 41.4892 384.504 Q41.0378 385.389 41.0378 387.172 Q41.0378 388.948 41.4892 389.839 Q41.9464 390.725 42.8492 390.725 Q43.7577 390.725 44.2091 389.839 Q44.6663 388.948 44.6663 387.172 Q44.6663 385.389 44.2091 384.504 Q43.7577 383.613 42.8492 383.613 M42.8492 382.687 Q44.3017 382.687 45.0656 383.838 Q45.8353 384.984 45.8353 387.172 Q45.8353 389.353 45.0656 390.505 Q44.3017 391.651 42.8492 391.651 Q41.3966 391.651 40.627 390.505 Q39.8631 389.353 39.8631 387.172 Q39.8631 384.984 40.627 383.838 Q41.3966 382.687 42.8492 382.687 Z" fill="#000000" fill-rule="evenodd" fill-opacity="1" /><path clip-path="url(#clip140)" d="M 0 0 M49.6026 383.613 Q48.6998 383.613 48.2427 384.504 Q47.7913 385.389 47.7913 387.172 Q47.7913 388.948 48.2427 389.839 Q48.6998 390.725 49.6026 390.725 Q50.5112 390.725 50.9626 389.839 Q51.4197 388.948 51.4197 387.172 Q51.4197 385.389 50.9626 384.504 Q50.5112 383.613 49.6026 383.613 M49.6026 382.687 Q51.0551 382.687 51.819 383.838 Q52.5887 384.984 52.5887 387.172 Q52.5887 389.353 51.819 390.505 Q51.0551 391.651 49.6026 391.651 Q48.1501 391.651 47.3804 390.505 Q46.6165 389.353 46.6165 387.172 Q46.6165 384.984 47.3804 383.838 Q48.1501 382.687 49.6026 382.687 Z" fill="#000000" fill-rule="evenodd" fill-opacity="1" /><path clip-path="url(#clip140)" d="M 0 0 M166.597 383.613 Q165.695 383.613 165.237 384.504 Q164.786 385.389 164.786 387.172 Q164.786 388.948 165.237 389.839 Q165.695 390.725 166.597 390.725 Q167.506 390.725 167.957 389.839 Q168.415 388.948 168.415 387.172 Q168.415 385.389 167.957 384.504 Q167.506 383.613 166.597 383.613 M166.597 382.687 Q168.05 382.687 168.814 383.838 Q169.584 384.984 169.584 387.172 Q169.584 389.353 168.814 390.505 Q168.05 391.651 166.597 391.651 Q165.145 391.651 164.375 390.505 Q163.611 389.353 163.611 387.172 Q163.611 384.984 164.375 383.838 Q165.145 382.687 166.597 382.687 Z" fill="#000000" fill-rule="evenodd" fill-opacity="1" /><path clip-path="url(#clip140)" d="M 0 0 M170.851 390.013 L172.072 390.013 L172.072 391.483 L170.851 391.483 L170.851 390.013 Z" fill="#000000" fill-rule="evenodd" fill-opacity="1" /><path clip-path="url(#clip140)" d="M 0 0 M174.346 390.499 L178.426 390.499 L178.426 391.483 L172.94 391.483 L172.94 390.499 Q173.605 389.811 174.751 388.653 Q175.903 387.49 176.198 387.154 Q176.759 386.523 176.979 386.089 Q177.205 385.65 177.205 385.227 Q177.205 384.539 176.719 384.105 Q176.239 383.671 175.463 383.671 Q174.913 383.671 174.3 383.861 Q173.692 384.052 172.998 384.44 L172.998 383.26 Q173.704 382.976 174.317 382.831 Q174.931 382.687 175.44 382.687 Q176.783 382.687 177.581 383.358 Q178.38 384.029 178.38 385.152 Q178.38 385.684 178.177 386.165 Q177.98 386.639 177.454 387.287 Q177.309 387.455 176.534 388.26 Q175.758 389.058 174.346 390.499 Z" fill="#000000" fill-rule="evenodd" fill-opacity="1" /><path clip-path="url(#clip140)" d="M 0 0 M179.705 382.843 L184.294 382.843 L184.294 383.827 L180.776 383.827 L180.776 385.945 Q181.03 385.858 181.285 385.817 Q181.539 385.771 181.794 385.771 Q183.241 385.771 184.086 386.564 Q184.931 387.357 184.931 388.711 Q184.931 390.106 184.063 390.881 Q183.195 391.651 181.615 391.651 Q181.071 391.651 180.504 391.558 Q179.942 391.466 179.34 391.28 L179.34 390.106 Q179.861 390.389 180.417 390.528 Q180.972 390.667 181.592 390.667 Q182.593 390.667 183.177 390.14 Q183.762 389.614 183.762 388.711 Q183.762 387.808 183.177 387.282 Q182.593 386.755 181.592 386.755 Q181.123 386.755 180.654 386.859 Q180.191 386.963 179.705 387.183 L179.705 382.843 Z" fill="#000000" fill-rule="evenodd" fill-opacity="1" /><path clip-path="url(#clip140)" d="M 0 0 M299.064 383.613 Q298.161 383.613 297.704 384.504 Q297.252 385.389 297.252 387.172 Q297.252 388.948 297.704 389.839 Q298.161 390.725 299.064 390.725 Q299.972 390.725 300.424 389.839 Q300.881 388.948 300.881 387.172 Q300.881 385.389 300.424 384.504 Q299.972 383.613 299.064 383.613 M299.064 382.687 Q300.516 382.687 301.28 383.838 Q302.05 384.984 302.05 387.172 Q302.05 389.353 301.28 390.505 Q300.516 391.651 299.064 391.651 Q297.611 391.651 296.842 390.505 Q296.078 389.353 296.078 387.172 Q296.078 384.984 296.842 383.838 Q297.611 382.687 299.064 382.687 Z" fill="#000000" fill-rule="evenodd" fill-opacity="1" /><path clip-path="url(#clip140)" d="M 0 0 M303.317 390.013 L304.538 390.013 L304.538 391.483 L303.317 391.483 L303.317 390.013 Z" fill="#000000" fill-rule="evenodd" fill-opacity="1" /><path clip-path="url(#clip140)" d="M 0 0 M305.817 382.843 L310.406 382.843 L310.406 383.827 L306.888 383.827 L306.888 385.945 Q307.142 385.858 307.397 385.817 Q307.652 385.771 307.906 385.771 Q309.353 385.771 310.198 386.564 Q311.043 387.357 311.043 388.711 Q311.043 390.106 310.175 390.881 Q309.307 391.651 307.727 391.651 Q307.183 391.651 306.616 391.558 Q306.054 391.466 305.453 391.28 L305.453 390.106 Q305.973 390.389 306.529 390.528 Q307.085 390.667 307.704 390.667 Q308.705 390.667 309.289 390.14 Q309.874 389.614 309.874 388.711 Q309.874 387.808 309.289 387.282 Q308.705 386.755 307.704 386.755 Q307.235 386.755 306.766 386.859 Q306.303 386.963 305.817 387.183 L305.817 382.843 Z" fill="#000000" fill-rule="evenodd" fill-opacity="1" /><path clip-path="url(#clip140)" d="M 0 0 M314.81 383.613 Q313.907 383.613 313.45 384.504 Q312.999 385.389 312.999 387.172 Q312.999 388.948 313.45 389.839 Q313.907 390.725 314.81 390.725 Q315.719 390.725 316.17 389.839 Q316.627 388.948 316.627 387.172 Q316.627 385.389 316.17 384.504 Q315.719 383.613 314.81 383.613 M314.81 382.687 Q316.263 382.687 317.027 383.838 Q317.796 384.984 317.796 387.172 Q317.796 389.353 317.027 390.505 Q316.263 391.651 314.81 391.651 Q313.358 391.651 312.588 390.505 Q311.824 389.353 311.824 387.172 Q311.824 384.984 312.588 383.838 Q313.358 382.687 314.81 382.687 Z" fill="#000000" fill-rule="evenodd" fill-opacity="1" /><path clip-path="url(#clip140)" d="M 0 0 M431.843 383.613 Q430.94 383.613 430.483 384.504 Q430.031 385.389 430.031 387.172 Q430.031 388.948 430.483 389.839 Q430.94 390.725 431.843 390.725 Q432.751 390.725 433.203 389.839 Q433.66 388.948 433.66 387.172 Q433.66 385.389 433.203 384.504 Q432.751 383.613 431.843 383.613 M431.843 382.687 Q433.295 382.687 434.059 383.838 Q434.829 384.984 434.829 387.172 Q434.829 389.353 434.059 390.505 Q433.295 391.651 431.843 391.651 Q430.39 391.651 429.62 390.505 Q428.857 389.353 428.857 387.172 Q428.857 384.984 429.62 383.838 Q430.39 382.687 431.843 382.687 Z" fill="#000000" fill-rule="evenodd" fill-opacity="1" /><path clip-path="url(#clip140)" d="M 0 0 M436.096 390.013 L437.317 390.013 L437.317 391.483 L436.096 391.483 L436.096 390.013 Z" fill="#000000" fill-rule="evenodd" fill-opacity="1" /><path clip-path="url(#clip140)" d="M 0 0 M438.289 382.843 L443.845 382.843 L443.845 383.341 L440.708 391.483 L439.487 391.483 L442.439 383.827 L438.289 383.827 L438.289 382.843 Z" fill="#000000" fill-rule="evenodd" fill-opacity="1" /><path clip-path="url(#clip140)" d="M 0 0 M445.124 382.843 L449.713 382.843 L449.713 383.827 L446.194 383.827 L446.194 385.945 Q446.449 385.858 446.704 385.817 Q446.958 385.771 447.213 385.771 Q448.66 385.771 449.505 386.564 Q450.35 387.357 450.35 388.711 Q450.35 390.106 449.481 390.881 Q448.613 391.651 447.034 391.651 Q446.49 391.651 445.922 391.558 Q445.361 391.466 444.759 391.28 L444.759 390.106 Q445.28 390.389 445.836 390.528 Q446.391 390.667 447.01 390.667 Q448.012 390.667 448.596 390.14 Q449.181 389.614 449.181 388.711 Q449.181 387.808 448.596 387.282 Q448.012 386.755 447.01 386.755 Q446.542 386.755 446.073 386.859 Q445.61 386.963 445.124 387.183 L445.124 382.843 Z" fill="#000000" fill-rule="evenodd" fill-opacity="1" /><path clip-path="url(#clip140)" d="M 0 0 M561.867 390.499 L563.777 390.499 L563.777 383.908 L561.699 384.324 L561.699 383.26 L563.765 382.843 L564.934 382.843 L564.934 390.499 L566.844 390.499 L566.844 391.483 L561.867 391.483 L561.867 390.499 Z" fill="#000000" fill-rule="evenodd" fill-opacity="1" /><path clip-path="url(#clip140)" d="M 0 0 M568.111 390.013 L569.332 390.013 L569.332 391.483 L568.111 391.483 L568.111 390.013 Z" fill="#000000" fill-rule="evenodd" fill-opacity="1" /><path clip-path="url(#clip140)" d="M 0 0 M573.099 383.613 Q572.197 383.613 571.74 384.504 Q571.288 385.389 571.288 387.172 Q571.288 388.948 571.74 389.839 Q572.197 390.725 573.099 390.725 Q574.008 390.725 574.459 389.839 Q574.917 388.948 574.917 387.172 Q574.917 385.389 574.459 384.504 Q574.008 383.613 573.099 383.613 M573.099 382.687 Q574.552 382.687 575.316 383.838 Q576.086 384.984 576.086 387.172 Q576.086 389.353 575.316 390.505 Q574.552 391.651 573.099 391.651 Q571.647 391.651 570.877 390.505 Q570.113 389.353 570.113 387.172 Q570.113 384.984 570.877 383.838 Q571.647 382.687 573.099 382.687 Z" fill="#000000" fill-rule="evenodd" fill-opacity="1" /><path clip-path="url(#clip140)" d="M 0 0 M579.853 383.613 Q578.95 383.613 578.493 384.504 Q578.042 385.389 578.042 387.172 Q578.042 388.948 578.493 389.839 Q578.95 390.725 579.853 390.725 Q580.761 390.725 581.213 389.839 Q581.67 388.948 581.67 387.172 Q581.67 385.389 581.213 384.504 Q580.761 383.613 579.853 383.613 M579.853 382.687 Q581.305 382.687 582.069 383.838 Q582.839 384.984 582.839 387.172 Q582.839 389.353 582.069 390.505 Q581.305 391.651 579.853 391.651 Q578.4 391.651 577.631 390.505 Q576.867 389.353 576.867 387.172 Q576.867 384.984 577.631 383.838 Q578.4 382.687 579.853 382.687 Z" fill="#000000" fill-rule="evenodd" fill-opacity="1" /><path clip-path="url(#clip140)" d="M 0 0 M306.702 401.089 L306.702 403.619 L309.718 403.619 L309.718 404.757 L306.702 404.757 L306.702 409.595 Q306.702 410.685 306.997 410.995 Q307.299 411.306 308.214 411.306 L309.718 411.306 L309.718 412.531 L308.214 412.531 Q306.519 412.531 305.875 411.902 Q305.23 411.266 305.23 409.595 L305.23 404.757 L304.156 404.757 L304.156 403.619 L305.23 403.619 L305.23 401.089 L306.702 401.089 Z" fill="#000000" fill-rule="evenodd" fill-opacity="1" /><polyline clip-path="url(#clip142)" style="stroke:#000000; stroke-width:0.5; stroke-opacity:0.1; fill:none" points="
  25.685,350.69 588.189,350.69 
  "/>
<polyline clip-path="url(#clip142)" style="stroke:#000000; stroke-width:0.5; stroke-opacity:0.1; fill:none" points="
  25.685,284.977 588.189,284.977 
  "/>
<polyline clip-path="url(#clip142)" style="stroke:#000000; stroke-width:0.5; stroke-opacity:0.1; fill:none" points="
  25.685,219.265 588.189,219.265 
  "/>
<polyline clip-path="url(#clip142)" style="stroke:#000000; stroke-width:0.5; stroke-opacity:0.1; fill:none" points="
  25.685,153.552 588.189,153.552 
  "/>
<polyline clip-path="url(#clip142)" style="stroke:#000000; stroke-width:0.5; stroke-opacity:0.1; fill:none" points="
  25.685,87.8396 588.189,87.8396 
  "/>
<polyline clip-path="url(#clip142)" style="stroke:#000000; stroke-width:0.5; stroke-opacity:0.1; fill:none" points="
  25.685,22.1272 588.189,22.1272 
  "/>
<polyline clip-path="url(#clip140)" style="stroke:#000000; stroke-width:1; stroke-opacity:1; fill:none" points="
  25.685,376.315 25.685,11.811 
  "/>
<polyline clip-path="url(#clip140)" style="stroke:#000000; stroke-width:1; stroke-opacity:1; fill:none" points="
  25.685,350.69 32.4351,350.69 
  "/>
<polyline clip-path="url(#clip140)" style="stroke:#000000; stroke-width:1; stroke-opacity:1; fill:none" points="
  25.685,284.977 32.4351,284.977 
  "/>
<polyline clip-path="url(#clip140)" style="stroke:#000000; stroke-width:1; stroke-opacity:1; fill:none" points="
  25.685,219.265 32.4351,219.265 
  "/>
<polyline clip-path="url(#clip140)" style="stroke:#000000; stroke-width:1; stroke-opacity:1; fill:none" points="
  25.685,153.552 32.4351,153.552 
  "/>
<polyline clip-path="url(#clip140)" style="stroke:#000000; stroke-width:1; stroke-opacity:1; fill:none" points="
  25.685,87.8396 32.4351,87.8396 
  "/>
<polyline clip-path="url(#clip140)" style="stroke:#000000; stroke-width:1; stroke-opacity:1; fill:none" points="
  25.685,22.1272 32.4351,22.1272 
  "/>
<path clip-path="url(#clip140)" d="M 0 0 M-2.29634 347.139 Q-3.19911 347.139 -3.65629 348.03 Q-4.10767 348.916 -4.10767 350.698 Q-4.10767 352.475 -3.65629 353.366 Q-3.19911 354.251 -2.29634 354.251 Q-1.38778 354.251 -0.936394 353.366 Q-0.479221 352.475 -0.479221 350.698 Q-0.479221 348.916 -0.936394 348.03 Q-1.38778 347.139 -2.29634 347.139 M-2.29634 346.213 Q-0.843802 346.213 -0.0799171 347.365 Q0.689755 348.511 0.689755 350.698 Q0.689755 352.88 -0.0799171 354.032 Q-0.843802 355.177 -2.29634 355.177 Q-3.74888 355.177 -4.51855 354.032 Q-5.28244 352.88 -5.28244 350.698 Q-5.28244 348.511 -4.51855 347.365 Q-3.74888 346.213 -2.29634 346.213 Z" fill="#000000" fill-rule="evenodd" fill-opacity="1" /><path clip-path="url(#clip140)" d="M 0 0 M1.95711 353.54 L3.17817 353.54 L3.17817 355.01 L1.95711 355.01 L1.95711 353.54 Z" fill="#000000" fill-rule="evenodd" fill-opacity="1" /><path clip-path="url(#clip140)" d="M 0 0 M6.94551 347.139 Q6.04274 347.139 5.58556 348.03 Q5.13418 348.916 5.13418 350.698 Q5.13418 352.475 5.58556 353.366 Q6.04274 354.251 6.94551 354.251 Q7.85407 354.251 8.30545 353.366 Q8.76263 352.475 8.76263 350.698 Q8.76263 348.916 8.30545 348.03 Q7.85407 347.139 6.94551 347.139 M6.94551 346.213 Q8.39805 346.213 9.16193 347.365 Q9.9316 348.511 9.9316 350.698 Q9.9316 352.88 9.16193 354.032 Q8.39805 355.177 6.94551 355.177 Q5.49297 355.177 4.7233 354.032 Q3.95941 352.88 3.95941 350.698 Q3.95941 348.511 4.7233 347.365 Q5.49297 346.213 6.94551 346.213 Z" fill="#000000" fill-rule="evenodd" fill-opacity="1" /><path clip-path="url(#clip140)" d="M 0 0 M13.6989 347.139 Q12.7962 347.139 12.339 348.03 Q11.8876 348.916 11.8876 350.698 Q11.8876 352.475 12.339 353.366 Q12.7962 354.251 13.6989 354.251 Q14.6075 354.251 15.0589 353.366 Q15.5161 352.475 15.5161 350.698 Q15.5161 348.916 15.0589 348.03 Q14.6075 347.139 13.6989 347.139 M13.6989 346.213 Q15.1515 346.213 15.9154 347.365 Q16.685 348.511 16.685 350.698 Q16.685 352.88 15.9154 354.032 Q15.1515 355.177 13.6989 355.177 Q12.2464 355.177 11.4767 354.032 Q10.7128 352.88 10.7128 350.698 Q10.7128 348.511 11.4767 347.365 Q12.2464 346.213 13.6989 346.213 Z" fill="#000000" fill-rule="evenodd" fill-opacity="1" /><path clip-path="url(#clip140)" d="M 0 0 M-2.0475 281.427 Q-2.95027 281.427 -3.40745 282.318 Q-3.85883 283.203 -3.85883 284.986 Q-3.85883 286.762 -3.40745 287.654 Q-2.95027 288.539 -2.0475 288.539 Q-1.13894 288.539 -0.687553 287.654 Q-0.230379 286.762 -0.230379 284.986 Q-0.230379 283.203 -0.687553 282.318 Q-1.13894 281.427 -2.0475 281.427 M-2.0475 280.501 Q-0.594961 280.501 0.168924 281.652 Q0.938596 282.798 0.938596 284.986 Q0.938596 287.167 0.168924 288.319 Q-0.594961 289.465 -2.0475 289.465 Q-3.50004 289.465 -4.26971 288.319 Q-5.03359 287.167 -5.03359 284.986 Q-5.03359 282.798 -4.26971 281.652 Q-3.50004 280.501 -2.0475 280.501 Z" fill="#000000" fill-rule="evenodd" fill-opacity="1" /><path clip-path="url(#clip140)" d="M 0 0 M2.20595 287.827 L3.42701 287.827 L3.42701 289.297 L2.20595 289.297 L2.20595 287.827 Z" fill="#000000" fill-rule="evenodd" fill-opacity="1" /><path clip-path="url(#clip140)" d="M 0 0 M7.19435 281.427 Q6.29158 281.427 5.8344 282.318 Q5.38302 283.203 5.38302 284.986 Q5.38302 286.762 5.8344 287.654 Q6.29158 288.539 7.19435 288.539 Q8.10291 288.539 8.5543 287.654 Q9.01147 286.762 9.01147 284.986 Q9.01147 283.203 8.5543 282.318 Q8.10291 281.427 7.19435 281.427 M7.19435 280.501 Q8.64689 280.501 9.41077 281.652 Q10.1804 282.798 10.1804 284.986 Q10.1804 287.167 9.41077 288.319 Q8.64689 289.465 7.19435 289.465 Q5.74181 289.465 4.97214 288.319 Q4.20825 287.167 4.20825 284.986 Q4.20825 282.798 4.97214 281.652 Q5.74181 280.501 7.19435 280.501 Z" fill="#000000" fill-rule="evenodd" fill-opacity="1" /><path clip-path="url(#clip140)" d="M 0 0 M11.4594 280.657 L16.0485 280.657 L16.0485 281.641 L12.53 281.641 L12.53 283.759 Q12.7846 283.672 13.0392 283.632 Q13.2939 283.585 13.5485 283.585 Q14.9952 283.585 15.8401 284.378 Q16.685 285.171 16.685 286.525 Q16.685 287.92 15.817 288.695 Q14.9489 289.465 13.3691 289.465 Q12.8251 289.465 12.258 289.372 Q11.6966 289.28 11.0948 289.094 L11.0948 287.92 Q11.6156 288.203 12.1712 288.342 Q12.7267 288.481 13.3459 288.481 Q14.3471 288.481 14.9316 287.954 Q15.5161 287.428 15.5161 286.525 Q15.5161 285.622 14.9316 285.096 Q14.3471 284.569 13.3459 284.569 Q12.8772 284.569 12.4084 284.673 Q11.9455 284.777 11.4594 284.997 L11.4594 280.657 Z" fill="#000000" fill-rule="evenodd" fill-opacity="1" /><path clip-path="url(#clip140)" d="M 0 0 M-1.98963 215.714 Q-2.8924 215.714 -3.34958 216.605 Q-3.80096 217.491 -3.80096 219.273 Q-3.80096 221.05 -3.34958 221.941 Q-2.8924 222.826 -1.98963 222.826 Q-1.08107 222.826 -0.629683 221.941 Q-0.172509 221.05 -0.172509 219.273 Q-0.172509 217.491 -0.629683 216.605 Q-1.08107 215.714 -1.98963 215.714 M-1.98963 214.788 Q-0.537091 214.788 0.226794 215.94 Q0.996466 217.086 0.996466 219.273 Q0.996466 221.455 0.226794 222.607 Q-0.537091 223.752 -1.98963 223.752 Q-3.44217 223.752 -4.21184 222.607 Q-4.97572 221.455 -4.97572 219.273 Q-4.97572 217.086 -4.21184 215.94 Q-3.44217 214.788 -1.98963 214.788 Z" fill="#000000" fill-rule="evenodd" fill-opacity="1" /><path clip-path="url(#clip140)" d="M 0 0 M2.26382 222.115 L3.48488 222.115 L3.48488 223.585 L2.26382 223.585 L2.26382 222.115 Z" fill="#000000" fill-rule="evenodd" fill-opacity="1" /><path clip-path="url(#clip140)" d="M 0 0 M4.95478 222.601 L6.86449 222.601 L6.86449 216.009 L4.78695 216.426 L4.78695 215.361 L6.85292 214.945 L8.02189 214.945 L8.02189 222.601 L9.9316 222.601 L9.9316 223.585 L4.95478 223.585 L4.95478 222.601 Z" fill="#000000" fill-rule="evenodd" fill-opacity="1" /><path clip-path="url(#clip140)" d="M 0 0 M13.6989 215.714 Q12.7962 215.714 12.339 216.605 Q11.8876 217.491 11.8876 219.273 Q11.8876 221.05 12.339 221.941 Q12.7962 222.826 13.6989 222.826 Q14.6075 222.826 15.0589 221.941 Q15.5161 221.05 15.5161 219.273 Q15.5161 217.491 15.0589 216.605 Q14.6075 215.714 13.6989 215.714 M13.6989 214.788 Q15.1515 214.788 15.9154 215.94 Q16.685 217.086 16.685 219.273 Q16.685 221.455 15.9154 222.607 Q15.1515 223.752 13.6989 223.752 Q12.2464 223.752 11.4767 222.607 Q10.7128 221.455 10.7128 219.273 Q10.7128 217.086 11.4767 215.94 Q12.2464 214.788 13.6989 214.788 Z" fill="#000000" fill-rule="evenodd" fill-opacity="1" /><path clip-path="url(#clip140)" d="M 0 0 M-1.74079 150.002 Q-2.64356 150.002 -3.10073 150.893 Q-3.55212 151.778 -3.55212 153.561 Q-3.55212 155.337 -3.10073 156.229 Q-2.64356 157.114 -1.74079 157.114 Q-0.832228 157.114 -0.380841 156.229 Q0.0763321 155.337 0.0763321 153.561 Q0.0763321 151.778 -0.380841 150.893 Q-0.832228 150.002 -1.74079 150.002 M-1.74079 149.076 Q-0.288249 149.076 0.475635 150.227 Q1.24531 151.373 1.24531 153.561 Q1.24531 155.742 0.475635 156.894 Q-0.288249 158.04 -1.74079 158.04 Q-3.19333 158.04 -3.963 156.894 Q-4.72688 155.742 -4.72688 153.561 Q-4.72688 151.373 -3.963 150.227 Q-3.19333 149.076 -1.74079 149.076 Z" fill="#000000" fill-rule="evenodd" fill-opacity="1" /><path clip-path="url(#clip140)" d="M 0 0 M2.51266 156.402 L3.73372 156.402 L3.73372 157.872 L2.51266 157.872 L2.51266 156.402 Z" fill="#000000" fill-rule="evenodd" fill-opacity="1" /><path clip-path="url(#clip140)" d="M 0 0 M5.20362 156.888 L7.11333 156.888 L7.11333 150.297 L5.0358 150.714 L5.0358 149.649 L7.10176 149.232 L8.27073 149.232 L8.27073 156.888 L10.1804 156.888 L10.1804 157.872 L5.20362 157.872 L5.20362 156.888 Z" fill="#000000" fill-rule="evenodd" fill-opacity="1" /><path clip-path="url(#clip140)" d="M 0 0 M11.4594 149.232 L16.0485 149.232 L16.0485 150.216 L12.53 150.216 L12.53 152.334 Q12.7846 152.247 13.0392 152.207 Q13.2939 152.16 13.5485 152.16 Q14.9952 152.16 15.8401 152.953 Q16.685 153.746 16.685 155.1 Q16.685 156.495 15.817 157.27 Q14.9489 158.04 13.3691 158.04 Q12.8251 158.04 12.258 157.947 Q11.6966 157.855 11.0948 157.67 L11.0948 156.495 Q11.6156 156.778 12.1712 156.917 Q12.7267 157.056 13.3459 157.056 Q14.3471 157.056 14.9316 156.53 Q15.5161 156.003 15.5161 155.1 Q15.5161 154.197 14.9316 153.671 Q14.3471 153.144 13.3459 153.144 Q12.8772 153.144 12.4084 153.248 Q11.9455 153.352 11.4594 153.572 L11.4594 149.232 Z" fill="#000000" fill-rule="evenodd" fill-opacity="1" /><path clip-path="url(#clip140)" d="M 0 0 M-1.89704 84.2893 Q-2.79981 84.2893 -3.25698 85.1805 Q-3.70837 86.0659 -3.70837 87.8483 Q-3.70837 89.6249 -3.25698 90.5161 Q-2.79981 91.4015 -1.89704 91.4015 Q-0.988477 91.4015 -0.537091 90.5161 Q-0.0799171 89.6249 -0.0799171 87.8483 Q-0.0799171 86.0659 -0.537091 85.1805 Q-0.988477 84.2893 -1.89704 84.2893 M-1.89704 83.3634 Q-0.444498 83.3634 0.319386 84.515 Q1.08906 85.6608 1.08906 87.8483 Q1.08906 90.03 0.319386 91.1816 Q-0.444498 92.3275 -1.89704 92.3275 Q-3.34958 92.3275 -4.11925 91.1816 Q-4.88313 90.03 -4.88313 87.8483 Q-4.88313 85.6608 -4.11925 84.515 Q-3.34958 83.3634 -1.89704 83.3634 Z" fill="#000000" fill-rule="evenodd" fill-opacity="1" /><path clip-path="url(#clip140)" d="M 0 0 M2.35641 90.6897 L3.57747 90.6897 L3.57747 92.1596 L2.35641 92.1596 L2.35641 90.6897 Z" fill="#000000" fill-rule="evenodd" fill-opacity="1" /><path clip-path="url(#clip140)" d="M 0 0 M5.85176 91.1758 L9.9316 91.1758 L9.9316 92.1596 L4.44552 92.1596 L4.44552 91.1758 Q5.11103 90.4872 6.25685 89.3298 Q7.40847 88.1666 7.70361 87.831 Q8.26495 87.2002 8.48485 86.7662 Q8.71055 86.3263 8.71055 85.9039 Q8.71055 85.2152 8.22444 84.7812 Q7.74412 84.3472 6.96866 84.3472 Q6.41889 84.3472 5.80547 84.5382 Q5.19783 84.7291 4.50339 85.1169 L4.50339 83.9363 Q5.20941 83.6527 5.82283 83.5081 Q6.43625 83.3634 6.94551 83.3634 Q8.28809 83.3634 9.0867 84.0347 Q9.88531 84.706 9.88531 85.8287 Q9.88531 86.3611 9.68276 86.8414 Q9.486 87.3159 8.95939 87.9641 Q8.81471 88.1319 8.03925 88.9363 Q7.26379 89.7349 5.85176 91.1758 Z" fill="#000000" fill-rule="evenodd" fill-opacity="1" /><path clip-path="url(#clip140)" d="M 0 0 M13.6989 84.2893 Q12.7962 84.2893 12.339 85.1805 Q11.8876 86.0659 11.8876 87.8483 Q11.8876 89.6249 12.339 90.5161 Q12.7962 91.4015 13.6989 91.4015 Q14.6075 91.4015 15.0589 90.5161 Q15.5161 89.6249 15.5161 87.8483 Q15.5161 86.0659 15.0589 85.1805 Q14.6075 84.2893 13.6989 84.2893 M13.6989 83.3634 Q15.1515 83.3634 15.9154 84.515 Q16.685 85.6608 16.685 87.8483 Q16.685 90.03 15.9154 91.1816 Q15.1515 92.3275 13.6989 92.3275 Q12.2464 92.3275 11.4767 91.1816 Q10.7128 90.03 10.7128 87.8483 Q10.7128 85.6608 11.4767 84.515 Q12.2464 83.3634 13.6989 83.3634 Z" fill="#000000" fill-rule="evenodd" fill-opacity="1" /><path clip-path="url(#clip140)" d="M 0 0 M-1.6482 18.5768 Q-2.55097 18.5768 -3.00814 19.468 Q-3.45953 20.3535 -3.45953 22.1359 Q-3.45953 23.9125 -3.00814 24.8037 Q-2.55097 25.6891 -1.6482 25.6891 Q-0.739636 25.6891 -0.288249 24.8037 Q0.168924 23.9125 0.168924 22.1359 Q0.168924 20.3535 -0.288249 19.468 Q-0.739636 18.5768 -1.6482 18.5768 M-1.6482 17.6509 Q-0.195657 17.6509 0.568228 18.8025 Q1.3379 19.9484 1.3379 22.1359 Q1.3379 24.3176 0.568228 25.4692 Q-0.195657 26.615 -1.6482 26.615 Q-3.10073 26.615 -3.87041 25.4692 Q-4.63429 24.3176 -4.63429 22.1359 Q-4.63429 19.9484 -3.87041 18.8025 Q-3.10073 17.6509 -1.6482 17.6509 Z" fill="#000000" fill-rule="evenodd" fill-opacity="1" /><path clip-path="url(#clip140)" d="M 0 0 M2.60525 24.9773 L3.82631 24.9773 L3.82631 26.4472 L2.60525 26.4472 L2.60525 24.9773 Z" fill="#000000" fill-rule="evenodd" fill-opacity="1" /><path clip-path="url(#clip140)" d="M 0 0 M6.10061 25.4634 L10.1804 25.4634 L10.1804 26.4472 L4.69436 26.4472 L4.69436 25.4634 Q5.35987 24.7747 6.5057 23.6173 Q7.65731 22.4541 7.95245 22.1185 Q8.51379 21.4877 8.73369 21.0537 Q8.95939 20.6139 8.95939 20.1914 Q8.95939 19.5028 8.47328 19.0687 Q7.99296 18.6347 7.2175 18.6347 Q6.66773 18.6347 6.05431 18.8257 Q5.44667 19.0167 4.75223 19.4044 L4.75223 18.2238 Q5.45825 17.9403 6.07167 17.7956 Q6.68509 17.6509 7.19435 17.6509 Q8.53693 17.6509 9.33554 18.3222 Q10.1341 18.9935 10.1341 20.1162 Q10.1341 20.6486 9.9316 21.1289 Q9.73485 21.6034 9.20823 22.2516 Q9.06355 22.4194 8.28809 23.2238 Q7.51263 24.0224 6.10061 25.4634 Z" fill="#000000" fill-rule="evenodd" fill-opacity="1" /><path clip-path="url(#clip140)" d="M 0 0 M11.4594 17.8072 L16.0485 17.8072 L16.0485 18.791 L12.53 18.791 L12.53 20.909 Q12.7846 20.8222 13.0392 20.7817 Q13.2939 20.7354 13.5485 20.7354 Q14.9952 20.7354 15.8401 21.5282 Q16.685 22.321 16.685 23.6752 Q16.685 25.0699 15.817 25.8453 Q14.9489 26.615 13.3691 26.615 Q12.8251 26.615 12.258 26.5224 Q11.6966 26.4298 11.0948 26.2446 L11.0948 25.0699 Q11.6156 25.3534 12.1712 25.4923 Q12.7267 25.6312 13.3459 25.6312 Q14.3471 25.6312 14.9316 25.1046 Q15.5161 24.578 15.5161 23.6752 Q15.5161 22.7724 14.9316 22.2458 Q14.3471 21.7192 13.3459 21.7192 Q12.8772 21.7192 12.4084 21.8234 Q11.9455 21.9275 11.4594 22.1474 L11.4594 17.8072 Z" fill="#000000" fill-rule="evenodd" fill-opacity="1" /><path clip-path="url(#clip140)" d="M 0 0 M-17.0189 193.641 Q-15.4275 194.262 -14.9421 194.851 Q-14.4567 195.44 -14.4567 196.426 L-14.4567 197.596 L-15.6821 197.596 L-15.6821 196.737 Q-15.6821 196.132 -15.9686 195.798 Q-16.255 195.463 -17.3213 195.058 L-17.9897 194.795 L-26.7584 198.4 L-26.7584 196.848 L-19.788 194.063 L-26.7584 191.278 L-26.7584 189.726 L-17.0189 193.641 Z" fill="#000000" fill-rule="evenodd" fill-opacity="1" /><circle clip-path="url(#clip142)" cx="478.685" cy="207.673" r="3" fill="#009af9" fill-rule="evenodd" fill-opacity="1" stroke="#000000" stroke-opacity="1" stroke-width="0.8"/>
<circle clip-path="url(#clip142)" cx="524.698" cy="121.793" r="3" fill="#009af9" fill-rule="evenodd" fill-opacity="1" stroke="#000000" stroke-opacity="1" stroke-width="0.8"/>
<circle clip-path="url(#clip142)" cx="128.934" cy="191.101" r="3" fill="#009af9" fill-rule="evenodd" fill-opacity="1" stroke="#000000" stroke-opacity="1" stroke-width="0.8"/>
<circle clip-path="url(#clip142)" cx="135.707" cy="244.01" r="3" fill="#009af9" fill-rule="evenodd" fill-opacity="1" stroke="#000000" stroke-opacity="1" stroke-width="0.8"/>
<circle clip-path="url(#clip142)" cx="189.597" cy="301.847" r="3" fill="#009af9" fill-rule="evenodd" fill-opacity="1" stroke="#000000" stroke-opacity="1" stroke-width="0.8"/>
<circle clip-path="url(#clip142)" cx="149.583" cy="246.697" r="3" fill="#009af9" fill-rule="evenodd" fill-opacity="1" stroke="#000000" stroke-opacity="1" stroke-width="0.8"/>
<circle clip-path="url(#clip142)" cx="64.0529" cy="81.8633" r="3" fill="#009af9" fill-rule="evenodd" fill-opacity="1" stroke="#000000" stroke-opacity="1" stroke-width="0.8"/>
<circle clip-path="url(#clip142)" cx="77.833" cy="98.9963" r="3" fill="#009af9" fill-rule="evenodd" fill-opacity="1" stroke="#000000" stroke-opacity="1" stroke-width="0.8"/>
<circle clip-path="url(#clip142)" cx="233.614" cy="335.57" r="3" fill="#009af9" fill-rule="evenodd" fill-opacity="1" stroke="#000000" stroke-opacity="1" stroke-width="0.8"/>
<circle clip-path="url(#clip142)" cx="558.056" cy="66.4776" r="3" fill="#009af9" fill-rule="evenodd" fill-opacity="1" stroke="#000000" stroke-opacity="1" stroke-width="0.8"/>
<circle clip-path="url(#clip142)" cx="352.474" cy="341.41" r="3" fill="#009af9" fill-rule="evenodd" fill-opacity="1" stroke="#000000" stroke-opacity="1" stroke-width="0.8"/>
<circle clip-path="url(#clip142)" cx="327.786" cy="365.999" r="3" fill="#009af9" fill-rule="evenodd" fill-opacity="1" stroke="#000000" stroke-opacity="1" stroke-width="0.8"/>
<circle clip-path="url(#clip142)" cx="179.597" cy="281.354" r="3" fill="#009af9" fill-rule="evenodd" fill-opacity="1" stroke="#000000" stroke-opacity="1" stroke-width="0.8"/>
<circle clip-path="url(#clip142)" cx="524.534" cy="144.927" r="3" fill="#009af9" fill-rule="evenodd" fill-opacity="1" stroke="#000000" stroke-opacity="1" stroke-width="0.8"/>
<circle clip-path="url(#clip142)" cx="130.245" cy="207.8" r="3" fill="#009af9" fill-rule="evenodd" fill-opacity="1" stroke="#000000" stroke-opacity="1" stroke-width="0.8"/>
<circle clip-path="url(#clip142)" cx="389.428" cy="336.962" r="3" fill="#009af9" fill-rule="evenodd" fill-opacity="1" stroke="#000000" stroke-opacity="1" stroke-width="0.8"/>
<circle clip-path="url(#clip142)" cx="347.208" cy="363.335" r="3" fill="#009af9" fill-rule="evenodd" fill-opacity="1" stroke="#000000" stroke-opacity="1" stroke-width="0.8"/>
<circle clip-path="url(#clip142)" cx="502.369" cy="188.57" r="3" fill="#009af9" fill-rule="evenodd" fill-opacity="1" stroke="#000000" stroke-opacity="1" stroke-width="0.8"/>
<circle clip-path="url(#clip142)" cx="555.181" cy="88.8232" r="3" fill="#009af9" fill-rule="evenodd" fill-opacity="1" stroke="#000000" stroke-opacity="1" stroke-width="0.8"/>
<circle clip-path="url(#clip142)" cx="448.991" cy="262.731" r="3" fill="#009af9" fill-rule="evenodd" fill-opacity="1" stroke="#000000" stroke-opacity="1" stroke-width="0.8"/>
<circle clip-path="url(#clip142)" cx="290.648" cy="331.857" r="3" fill="#009af9" fill-rule="evenodd" fill-opacity="1" stroke="#000000" stroke-opacity="1" stroke-width="0.8"/>
<circle clip-path="url(#clip142)" cx="74.7012" cy="88.3649" r="3" fill="#009af9" fill-rule="evenodd" fill-opacity="1" stroke="#000000" stroke-opacity="1" stroke-width="0.8"/>
<circle clip-path="url(#clip142)" cx="228.998" cy="336.151" r="3" fill="#009af9" fill-rule="evenodd" fill-opacity="1" stroke="#000000" stroke-opacity="1" stroke-width="0.8"/>
<circle clip-path="url(#clip142)" cx="448.944" cy="245.849" r="3" fill="#009af9" fill-rule="evenodd" fill-opacity="1" stroke="#000000" stroke-opacity="1" stroke-width="0.8"/>
<circle clip-path="url(#clip142)" cx="64.4984" cy="74.375" r="3" fill="#009af9" fill-rule="evenodd" fill-opacity="1" stroke="#000000" stroke-opacity="1" stroke-width="0.8"/>
<circle clip-path="url(#clip142)" cx="183.815" cy="284.28" r="3" fill="#009af9" fill-rule="evenodd" fill-opacity="1" stroke="#000000" stroke-opacity="1" stroke-width="0.8"/>
<circle clip-path="url(#clip142)" cx="77.078" cy="85.1255" r="3" fill="#009af9" fill-rule="evenodd" fill-opacity="1" stroke="#000000" stroke-opacity="1" stroke-width="0.8"/>
<circle clip-path="url(#clip142)" cx="124.726" cy="201.562" r="3" fill="#009af9" fill-rule="evenodd" fill-opacity="1" stroke="#000000" stroke-opacity="1" stroke-width="0.8"/>
<circle clip-path="url(#clip142)" cx="362.814" cy="321.702" r="3" fill="#009af9" fill-rule="evenodd" fill-opacity="1" stroke="#000000" stroke-opacity="1" stroke-width="0.8"/>
<circle clip-path="url(#clip142)" cx="113.64" cy="179.612" r="3" fill="#009af9" fill-rule="evenodd" fill-opacity="1" stroke="#000000" stroke-opacity="1" stroke-width="0.8"/>
<circle clip-path="url(#clip142)" cx="486.364" cy="196.598" r="3" fill="#009af9" fill-rule="evenodd" fill-opacity="1" stroke="#000000" stroke-opacity="1" stroke-width="0.8"/>
<circle clip-path="url(#clip142)" cx="527.01" cy="170.227" r="3" fill="#009af9" fill-rule="evenodd" fill-opacity="1" stroke="#000000" stroke-opacity="1" stroke-width="0.8"/>
<circle clip-path="url(#clip142)" cx="200.844" cy="322.121" r="3" fill="#009af9" fill-rule="evenodd" fill-opacity="1" stroke="#000000" stroke-opacity="1" stroke-width="0.8"/>
<circle clip-path="url(#clip142)" cx="425.195" cy="292.366" r="3" fill="#009af9" fill-rule="evenodd" fill-opacity="1" stroke="#000000" stroke-opacity="1" stroke-width="0.8"/>
<circle clip-path="url(#clip142)" cx="105.1" cy="159.021" r="3" fill="#009af9" fill-rule="evenodd" fill-opacity="1" stroke="#000000" stroke-opacity="1" stroke-width="0.8"/>
<circle clip-path="url(#clip142)" cx="448.661" cy="229.303" r="3" fill="#009af9" fill-rule="evenodd" fill-opacity="1" stroke="#000000" stroke-opacity="1" stroke-width="0.8"/>
<circle clip-path="url(#clip142)" cx="467.157" cy="210.871" r="3" fill="#009af9" fill-rule="evenodd" fill-opacity="1" stroke="#000000" stroke-opacity="1" stroke-width="0.8"/>
<circle clip-path="url(#clip142)" cx="60.361" cy="94.6472" r="3" fill="#009af9" fill-rule="evenodd" fill-opacity="1" stroke="#000000" stroke-opacity="1" stroke-width="0.8"/>
<circle clip-path="url(#clip142)" cx="298.797" cy="343.063" r="3" fill="#009af9" fill-rule="evenodd" fill-opacity="1" stroke="#000000" stroke-opacity="1" stroke-width="0.8"/>
<circle clip-path="url(#clip142)" cx="518.778" cy="148.727" r="3" fill="#009af9" fill-rule="evenodd" fill-opacity="1" stroke="#000000" stroke-opacity="1" stroke-width="0.8"/>
<circle clip-path="url(#clip142)" cx="546.633" cy="88.8186" r="3" fill="#009af9" fill-rule="evenodd" fill-opacity="1" stroke="#000000" stroke-opacity="1" stroke-width="0.8"/>
<circle clip-path="url(#clip142)" cx="466.73" cy="229.229" r="3" fill="#009af9" fill-rule="evenodd" fill-opacity="1" stroke="#000000" stroke-opacity="1" stroke-width="0.8"/>
<circle clip-path="url(#clip142)" cx="107.579" cy="185.15" r="3" fill="#009af9" fill-rule="evenodd" fill-opacity="1" stroke="#000000" stroke-opacity="1" stroke-width="0.8"/>
<circle clip-path="url(#clip142)" cx="102.243" cy="149.341" r="3" fill="#009af9" fill-rule="evenodd" fill-opacity="1" stroke="#000000" stroke-opacity="1" stroke-width="0.8"/>
<circle clip-path="url(#clip142)" cx="83.8217" cy="96.3252" r="3" fill="#009af9" fill-rule="evenodd" fill-opacity="1" stroke="#000000" stroke-opacity="1" stroke-width="0.8"/>
<circle clip-path="url(#clip142)" cx="453.758" cy="246.951" r="3" fill="#009af9" fill-rule="evenodd" fill-opacity="1" stroke="#000000" stroke-opacity="1" stroke-width="0.8"/>
<circle clip-path="url(#clip142)" cx="97.2306" cy="115.041" r="3" fill="#009af9" fill-rule="evenodd" fill-opacity="1" stroke="#000000" stroke-opacity="1" stroke-width="0.8"/>
<circle clip-path="url(#clip142)" cx="486.341" cy="201.554" r="3" fill="#009af9" fill-rule="evenodd" fill-opacity="1" stroke="#000000" stroke-opacity="1" stroke-width="0.8"/>
<circle clip-path="url(#clip142)" cx="139.308" cy="201.967" r="3" fill="#009af9" fill-rule="evenodd" fill-opacity="1" stroke="#000000" stroke-opacity="1" stroke-width="0.8"/>
<circle clip-path="url(#clip142)" cx="207.249" cy="288.281" r="3" fill="#009af9" fill-rule="evenodd" fill-opacity="1" stroke="#000000" stroke-opacity="1" stroke-width="0.8"/>
<polyline clip-path="url(#clip142)" style="stroke:#ff0000; stroke-width:2; stroke-opacity:1; fill:none" points="
  41.605,22.1272 46.9116,35.1382 52.2182,47.8865 57.5249,60.3718 62.8315,72.5943 68.1382,84.554 73.4448,96.2508 78.7514,107.685 84.0581,118.856 89.3647,129.764 
  94.6714,140.41 99.978,150.792 105.285,160.912 110.591,170.769 115.898,180.363 121.205,189.694 126.511,198.762 131.818,207.568 137.124,216.11 142.431,224.39 
  147.738,232.407 153.044,240.161 158.351,247.652 163.658,254.881 168.964,261.846 174.271,268.549 179.578,274.989 184.884,281.166 190.191,287.08 195.498,292.731 
  200.804,298.12 206.111,303.245 211.417,308.108 216.724,312.708 222.031,317.045 227.337,321.119 232.644,324.93 237.951,328.479 243.257,331.764 248.564,334.787 
  253.871,337.547 259.177,340.044 264.484,342.278 269.791,344.25 275.097,345.958 280.404,347.404 285.71,348.587 291.017,349.507 296.324,350.164 301.63,350.558 
  306.937,350.69 312.244,350.558 317.55,350.164 322.857,349.507 328.164,348.587 333.47,347.404 338.777,345.958 344.083,344.25 349.39,342.278 354.697,340.044 
  360.003,337.547 365.31,334.787 370.617,331.764 375.923,328.479 381.23,324.93 386.537,321.119 391.843,317.045 397.15,312.708 402.457,308.108 407.763,303.245 
  413.07,298.12 418.376,292.731 423.683,287.08 428.99,281.166 434.296,274.989 439.603,268.549 444.91,261.846 450.216,254.881 455.523,247.652 460.83,240.161 
  466.136,232.407 471.443,224.39 476.75,216.11 482.056,207.568 487.363,198.762 492.669,189.694 497.976,180.363 503.283,170.769 508.589,160.912 513.896,150.792 
  519.203,140.41 524.509,129.764 529.816,118.856 535.123,107.685 540.429,96.2508 545.736,84.554 551.042,72.5943 556.349,60.3718 561.656,47.8865 566.962,35.1382 
  572.269,22.1272 
  "/>
<polyline clip-path="url(#clip142)" style="stroke:#0000ff; stroke-width:2; stroke-opacity:1; fill:none" stroke-dasharray="8, 5" points="
  41.605,22.8581 46.9116,35.8045 52.2182,48.491 57.5249,60.9176 62.8315,73.0841 68.1382,84.9906 73.4448,96.6372 78.7514,108.024 84.0581,119.15 89.3647,130.017 
  94.6714,140.624 99.978,150.97 105.285,161.057 110.591,170.883 115.898,180.45 121.205,189.757 126.511,198.804 131.818,207.59 137.124,216.117 142.431,224.384 
  147.738,232.39 153.044,240.137 158.351,247.624 163.658,254.851 168.964,261.818 174.271,268.524 179.578,274.971 184.884,281.158 190.191,287.085 195.498,292.752 
  200.804,298.159 206.111,303.306 211.417,308.192 216.724,312.819 222.031,317.186 227.337,321.293 232.644,325.14 237.951,328.727 243.257,332.054 248.564,335.121 
  253.871,337.928 259.177,340.475 264.484,342.762 269.791,344.789 275.097,346.557 280.404,348.064 285.71,349.311 291.017,350.298 296.324,351.025 301.63,351.492 
  306.937,351.699 312.244,351.646 317.55,351.334 322.857,350.761 328.164,349.928 333.47,348.835 338.777,347.483 344.083,345.87 349.39,343.997 354.697,341.864 
  360.003,339.472 365.31,336.819 370.617,333.906 375.923,330.734 381.23,327.301 386.537,323.608 391.843,319.656 397.15,315.443 402.457,310.971 407.763,306.238 
  413.07,301.245 418.376,295.993 423.683,290.48 428.99,284.708 434.296,278.675 439.603,272.383 444.91,265.83 450.216,259.018 455.523,251.945 460.83,244.613 
  466.136,237.021 471.443,229.168 476.75,221.056 482.056,212.683 487.363,204.051 492.669,195.159 497.976,186.006 503.283,176.594 508.589,166.922 513.896,156.989 
  519.203,146.797 524.509,136.345 529.816,125.633 535.123,114.66 540.429,103.428 545.736,91.9359 551.042,80.1837 556.349,68.1715 561.656,55.8993 566.962,43.3671 
  572.269,30.575 
  "/>
<path clip-path="url(#clip140)" d="
M419.005 84.4412 L569.439 84.4412 L569.439 23.9612 L419.005 23.9612  Z
  " fill="#ffffff" fill-rule="evenodd" fill-opacity="1"/>
<polyline clip-path="url(#clip140)" style="stroke:#000000; stroke-width:1; stroke-opacity:1; fill:none" points="
  419.005,84.4412 569.439,84.4412 569.439,23.9612 419.005,23.9612 419.005,84.4412 
  "/>
<circle clip-path="url(#clip140)" cx="444.005" cy="39.0812" r="5" fill="#009af9" fill-rule="evenodd" fill-opacity="1" stroke="#000000" stroke-opacity="1" stroke-width="1.28"/>
<path clip-path="url(#clip140)" d="M 0 0 M473.01 35.554 Q471.737 35.554 470.984 36.503 Q470.238 37.4521 470.238 39.0898 Q470.238 40.7218 470.984 41.6708 Q471.737 42.6199 473.01 42.6199 Q474.283 42.6199 475.024 41.6708 Q475.77 40.7218 475.77 39.0898 Q475.77 37.4521 475.024 36.503 Q474.283 35.554 473.01 35.554 M473.01 34.6049 Q474.827 34.6049 475.915 35.826 Q477.003 37.0412 477.003 39.0898 Q477.003 41.1326 475.915 42.3537 Q474.827 43.569 473.01 43.569 Q471.187 43.569 470.093 42.3537 Q469.005 41.1384 469.005 39.0898 Q469.005 37.0412 470.093 35.826 Q471.187 34.6049 473.01 34.6049 Z" fill="#000000" fill-rule="evenodd" fill-opacity="1" /><path clip-path="url(#clip140)" d="M 0 0 M482.772 40.1662 Q482.772 38.9915 482.286 38.326 Q481.806 37.6547 480.961 37.6547 Q480.116 37.6547 479.63 38.326 Q479.15 38.9915 479.15 40.1662 Q479.15 41.341 479.63 42.0123 Q480.116 42.6778 480.961 42.6778 Q481.806 42.6778 482.286 42.0123 Q482.772 41.341 482.772 40.1662 M479.15 37.9035 Q479.485 37.3248 479.995 37.047 Q480.51 36.7635 481.222 36.7635 Q482.402 36.7635 483.137 37.701 Q483.878 38.6384 483.878 40.1662 Q483.878 41.694 483.137 42.6315 Q482.402 43.569 481.222 43.569 Q480.51 43.569 479.995 43.2912 Q479.485 43.0076 479.15 42.4289 L479.15 43.4012 L478.079 43.4012 L478.079 34.3966 L479.15 34.3966 L479.15 37.9035 Z" fill="#000000" fill-rule="evenodd" fill-opacity="1" /><path clip-path="url(#clip140)" d="M 0 0 M489.127 37.1107 L489.127 38.1176 Q488.675 37.8861 488.189 37.7704 Q487.703 37.6547 487.182 37.6547 Q486.389 37.6547 485.99 37.8977 Q485.597 38.1408 485.597 38.6269 Q485.597 38.9972 485.88 39.2114 Q486.164 39.4197 487.02 39.6107 L487.385 39.6917 Q488.519 39.9347 488.994 40.3803 Q489.474 40.8202 489.474 41.613 Q489.474 42.5157 488.756 43.0424 Q488.044 43.569 486.794 43.569 Q486.274 43.569 485.707 43.4648 Q485.145 43.3664 484.52 43.1639 L484.52 42.0644 Q485.11 42.3711 485.683 42.5273 Q486.256 42.6778 486.818 42.6778 Q487.57 42.6778 487.975 42.4232 Q488.38 42.1627 488.38 41.694 Q488.38 41.26 488.085 41.0285 Q487.796 40.797 486.806 40.5829 L486.436 40.4961 Q485.446 40.2877 485.006 39.8595 Q484.566 39.4255 484.566 38.6732 Q484.566 37.7588 485.215 37.2611 Q485.863 36.7635 487.055 36.7635 Q487.645 36.7635 488.166 36.8503 Q488.687 36.9371 489.127 37.1107 Z" fill="#000000" fill-rule="evenodd" fill-opacity="1" /><path clip-path="url(#clip140)" d="M 0 0 M496.135 39.8942 L496.135 40.4151 L491.239 40.4151 Q491.308 41.5146 491.899 42.0933 Q492.495 42.6662 493.554 42.6662 Q494.167 42.6662 494.74 42.5157 Q495.319 42.3653 495.886 42.0644 L495.886 43.0713 Q495.313 43.3143 494.711 43.4417 Q494.109 43.569 493.49 43.569 Q491.939 43.569 491.031 42.6662 Q490.128 41.7634 490.128 40.2241 Q490.128 38.6327 490.984 37.701 Q491.847 36.7635 493.305 36.7635 Q494.613 36.7635 495.371 37.6084 Q496.135 38.4475 496.135 39.8942 M495.07 39.5817 Q495.058 38.7079 494.578 38.1871 Q494.103 37.6662 493.316 37.6662 Q492.425 37.6662 491.887 38.1697 Q491.355 38.6732 491.274 39.5875 L495.07 39.5817 Z" fill="#000000" fill-rule="evenodd" fill-opacity="1" /><path clip-path="url(#clip140)" d="M 0 0 M501.007 37.9151 Q500.828 37.8109 500.614 37.7646 Q500.405 37.7125 500.151 37.7125 Q499.248 37.7125 498.762 38.3028 Q498.282 38.8873 498.282 39.9868 L498.282 43.4012 L497.211 43.4012 L497.211 36.9197 L498.282 36.9197 L498.282 37.9266 Q498.617 37.3364 499.156 37.0528 Q499.694 36.7635 500.463 36.7635 Q500.573 36.7635 500.706 36.7808 Q500.84 36.7924 501.002 36.8213 L501.007 37.9151 Z" fill="#000000" fill-rule="evenodd" fill-opacity="1" /><path clip-path="url(#clip140)" d="M 0 0 M501.36 36.9197 L502.489 36.9197 L504.514 42.3595 L506.54 36.9197 L507.668 36.9197 L505.238 43.4012 L503.791 43.4012 L501.36 36.9197 Z" fill="#000000" fill-rule="evenodd" fill-opacity="1" /><path clip-path="url(#clip140)" d="M 0 0 M514.329 39.8942 L514.329 40.4151 L509.433 40.4151 Q509.503 41.5146 510.093 42.0933 Q510.689 42.6662 511.748 42.6662 Q512.361 42.6662 512.934 42.5157 Q513.513 42.3653 514.08 42.0644 L514.08 43.0713 Q513.507 43.3143 512.905 43.4417 Q512.304 43.569 511.684 43.569 Q510.133 43.569 509.225 42.6662 Q508.322 41.7634 508.322 40.2241 Q508.322 38.6327 509.179 37.701 Q510.041 36.7635 511.499 36.7635 Q512.807 36.7635 513.565 37.6084 Q514.329 38.4475 514.329 39.8942 M513.264 39.5817 Q513.253 38.7079 512.772 38.1871 Q512.298 37.6662 511.511 37.6662 Q510.62 37.6662 510.081 38.1697 Q509.549 38.6732 509.468 39.5875 L513.264 39.5817 Z" fill="#000000" fill-rule="evenodd" fill-opacity="1" /><path clip-path="url(#clip140)" d="M 0 0 M519.711 37.9035 L519.711 34.3966 L520.776 34.3966 L520.776 43.4012 L519.711 43.4012 L519.711 42.4289 Q519.375 43.0076 518.86 43.2912 Q518.351 43.569 517.633 43.569 Q516.459 43.569 515.718 42.6315 Q514.983 41.694 514.983 40.1662 Q514.983 38.6384 515.718 37.701 Q516.459 36.7635 517.633 36.7635 Q518.351 36.7635 518.86 37.047 Q519.375 37.3248 519.711 37.9035 M516.082 40.1662 Q516.082 41.341 516.563 42.0123 Q517.049 42.6778 517.894 42.6778 Q518.739 42.6778 519.225 42.0123 Q519.711 41.341 519.711 40.1662 Q519.711 38.9915 519.225 38.326 Q518.739 37.6547 517.894 37.6547 Q517.049 37.6547 516.563 38.326 Q516.082 38.9915 516.082 40.1662 Z" fill="#000000" fill-rule="evenodd" fill-opacity="1" /><path clip-path="url(#clip140)" d="M 0 0 M526.875 35.7218 L526.875 42.4405 L528.287 42.4405 Q530.075 42.4405 530.903 41.6303 Q531.736 40.8202 531.736 39.0725 Q531.736 37.3364 530.903 36.532 Q530.075 35.7218 528.287 35.7218 L526.875 35.7218 M525.706 34.7612 L528.108 34.7612 Q530.619 34.7612 531.794 35.8086 Q532.969 36.8503 532.969 39.0725 Q532.969 41.3063 531.788 42.3537 Q530.608 43.4012 528.108 43.4012 L525.706 43.4012 L525.706 34.7612 Z" fill="#000000" fill-rule="evenodd" fill-opacity="1" /><path clip-path="url(#clip140)" d="M 0 0 M537.031 40.1431 Q535.741 40.1431 535.243 40.4382 Q534.746 40.7333 534.746 41.4451 Q534.746 42.0123 535.116 42.3479 Q535.492 42.6778 536.134 42.6778 Q537.02 42.6778 537.552 42.0528 Q538.09 41.422 538.09 40.3803 L538.09 40.1431 L537.031 40.1431 M539.155 39.7033 L539.155 43.4012 L538.09 43.4012 L538.09 42.4174 Q537.726 43.0076 537.182 43.2912 Q536.638 43.569 535.851 43.569 Q534.856 43.569 534.265 43.0134 Q533.681 42.4521 533.681 41.5146 Q533.681 40.4208 534.41 39.8653 Q535.145 39.3097 536.597 39.3097 L538.09 39.3097 L538.09 39.2056 Q538.09 38.4706 537.604 38.0713 Q537.124 37.6662 536.25 37.6662 Q535.695 37.6662 535.168 37.7993 Q534.641 37.9324 534.155 38.1986 L534.155 37.2148 Q534.74 36.9892 535.29 36.8792 Q535.839 36.7635 536.36 36.7635 Q537.766 36.7635 538.461 37.4926 Q539.155 38.2218 539.155 39.7033 Z" fill="#000000" fill-rule="evenodd" fill-opacity="1" /><path clip-path="url(#clip140)" d="M 0 0 M541.325 35.0794 L541.325 36.9197 L543.519 36.9197 L543.519 37.7472 L541.325 37.7472 L541.325 41.2657 Q541.325 42.0586 541.54 42.2843 Q541.759 42.51 542.425 42.51 L543.519 42.51 L543.519 43.4012 L542.425 43.4012 Q541.192 43.4012 540.724 42.944 Q540.255 42.481 540.255 41.2657 L540.255 37.7472 L539.474 37.7472 L539.474 36.9197 L540.255 36.9197 L540.255 35.0794 L541.325 35.0794 Z" fill="#000000" fill-rule="evenodd" fill-opacity="1" /><path clip-path="url(#clip140)" d="M 0 0 M547.581 40.1431 Q546.291 40.1431 545.793 40.4382 Q545.295 40.7333 545.295 41.4451 Q545.295 42.0123 545.666 42.3479 Q546.042 42.6778 546.684 42.6778 Q547.57 42.6778 548.102 42.0528 Q548.64 41.422 548.64 40.3803 L548.64 40.1431 L547.581 40.1431 M549.705 39.7033 L549.705 43.4012 L548.64 43.4012 L548.64 42.4174 Q548.276 43.0076 547.732 43.2912 Q547.188 43.569 546.401 43.569 Q545.405 43.569 544.815 43.0134 Q544.23 42.4521 544.23 41.5146 Q544.23 40.4208 544.96 39.8653 Q545.695 39.3097 547.147 39.3097 L548.64 39.3097 L548.64 39.2056 Q548.64 38.4706 548.154 38.0713 Q547.674 37.6662 546.8 37.6662 Q546.244 37.6662 545.718 37.7993 Q545.191 37.9324 544.705 38.1986 L544.705 37.2148 Q545.29 36.9892 545.839 36.8792 Q546.389 36.7635 546.91 36.7635 Q548.316 36.7635 549.011 37.4926 Q549.705 38.2218 549.705 39.7033 Z" fill="#000000" fill-rule="evenodd" fill-opacity="1" /><polyline clip-path="url(#clip140)" style="stroke:#ff0000; stroke-width:1; stroke-opacity:1; fill:none" points="
  425.255,54.2012 462.755,54.2012 
  "/>
<path clip-path="url(#clip140)" d="M 0 0 M469.005 49.8812 L476.314 49.8812 L476.314 50.8649 L473.247 50.8649 L473.247 58.5212 L472.072 58.5212 L472.072 50.8649 L469.005 50.8649 L469.005 49.8812 Z" fill="#000000" fill-rule="evenodd" fill-opacity="1" /><path clip-path="url(#clip140)" d="M 0 0 M479.445 53.0351 Q479.266 52.9309 479.051 52.8846 Q478.843 52.8325 478.588 52.8325 Q477.686 52.8325 477.2 53.4228 Q476.719 54.0073 476.719 55.1068 L476.719 58.5212 L475.649 58.5212 L475.649 52.0397 L476.719 52.0397 L476.719 53.0466 Q477.055 52.4564 477.593 52.1728 Q478.131 51.8835 478.901 51.8835 Q479.011 51.8835 479.144 51.9008 Q479.277 51.9124 479.439 51.9413 L479.445 53.0351 Z" fill="#000000" fill-rule="evenodd" fill-opacity="1" /><path clip-path="url(#clip140)" d="M 0 0 M480.452 55.9633 L480.452 52.0397 L481.517 52.0397 L481.517 55.9228 Q481.517 56.8429 481.876 57.3059 Q482.234 57.7631 482.952 57.7631 Q483.814 57.7631 484.312 57.2133 Q484.815 56.6635 484.815 55.7145 L484.815 52.0397 L485.88 52.0397 L485.88 58.5212 L484.815 58.5212 L484.815 57.5258 Q484.428 58.1161 483.913 58.4054 Q483.403 58.689 482.726 58.689 Q481.609 58.689 481.031 57.9945 Q480.452 57.3001 480.452 55.9633 M483.131 51.8835 L483.131 51.8835 Z" fill="#000000" fill-rule="evenodd" fill-opacity="1" /><path clip-path="url(#clip140)" d="M 0 0 M492.541 55.0142 L492.541 55.5351 L487.645 55.5351 Q487.715 56.6346 488.305 57.2133 Q488.901 57.7862 489.96 57.7862 Q490.573 57.7862 491.146 57.6357 Q491.725 57.4853 492.292 57.1844 L492.292 58.1913 Q491.719 58.4343 491.117 58.5617 Q490.516 58.689 489.896 58.689 Q488.345 58.689 487.437 57.7862 Q486.534 56.8834 486.534 55.3441 Q486.534 53.7527 487.391 52.821 Q488.253 51.8835 489.711 51.8835 Q491.019 51.8835 491.777 52.7284 Q492.541 53.5675 492.541 55.0142 M491.476 54.7017 Q491.465 53.8279 490.984 53.3071 Q490.51 52.7862 489.723 52.7862 Q488.831 52.7862 488.293 53.2897 Q487.761 53.7932 487.68 54.7075 L491.476 54.7017 Z" fill="#000000" fill-rule="evenodd" fill-opacity="1" /><path clip-path="url(#clip140)" d="M 0 0 M503.941 50.5467 L503.941 51.7793 Q503.351 51.2295 502.68 50.9575 Q502.014 50.6855 501.262 50.6855 Q499.78 50.6855 498.993 51.5941 Q498.206 52.4969 498.206 54.2098 Q498.206 55.917 498.993 56.8256 Q499.78 57.7283 501.262 57.7283 Q502.014 57.7283 502.68 57.4563 Q503.351 57.1844 503.941 56.6346 L503.941 57.8556 Q503.328 58.2723 502.639 58.4806 Q501.956 58.689 501.193 58.689 Q499.231 58.689 498.102 57.4911 Q496.974 56.2874 496.974 54.2098 Q496.974 52.1265 498.102 50.9286 Q499.231 49.7249 501.193 49.7249 Q501.968 49.7249 502.651 49.9332 Q503.34 50.1358 503.941 50.5467 Z" fill="#000000" fill-rule="evenodd" fill-opacity="1" /><path clip-path="url(#clip140)" d="M 0 0 M504.948 55.9633 L504.948 52.0397 L506.013 52.0397 L506.013 55.9228 Q506.013 56.8429 506.372 57.3059 Q506.731 57.7631 507.448 57.7631 Q508.311 57.7631 508.808 57.2133 Q509.312 56.6635 509.312 55.7145 L509.312 52.0397 L510.377 52.0397 L510.377 58.5212 L509.312 58.5212 L509.312 57.5258 Q508.924 58.1161 508.409 58.4054 Q507.9 58.689 507.223 58.689 Q506.106 58.689 505.527 57.9945 Q504.948 57.3001 504.948 55.9633 M507.628 51.8835 L507.628 51.8835 Z" fill="#000000" fill-rule="evenodd" fill-opacity="1" /><path clip-path="url(#clip140)" d="M 0 0 M515.249 53.0351 Q515.07 52.9309 514.856 52.8846 Q514.647 52.8325 514.393 52.8325 Q513.49 52.8325 513.004 53.4228 Q512.523 54.0073 512.523 55.1068 L512.523 58.5212 L511.453 58.5212 L511.453 52.0397 L512.523 52.0397 L512.523 53.0466 Q512.859 52.4564 513.397 52.1728 Q513.936 51.8835 514.705 51.8835 Q514.815 51.8835 514.948 51.9008 Q515.081 51.9124 515.243 51.9413 L515.249 53.0351 Z" fill="#000000" fill-rule="evenodd" fill-opacity="1" /><path clip-path="url(#clip140)" d="M 0 0 M515.602 52.0397 L516.731 52.0397 L518.756 57.4795 L520.782 52.0397 L521.91 52.0397 L519.479 58.5212 L518.033 58.5212 L515.602 52.0397 Z" fill="#000000" fill-rule="evenodd" fill-opacity="1" /><path clip-path="url(#clip140)" d="M 0 0 M528.571 55.0142 L528.571 55.5351 L523.675 55.5351 Q523.744 56.6346 524.335 57.2133 Q524.931 57.7862 525.99 57.7862 Q526.603 57.7862 527.176 57.6357 Q527.755 57.4853 528.322 57.1844 L528.322 58.1913 Q527.749 58.4343 527.147 58.5617 Q526.545 58.689 525.926 58.689 Q524.375 58.689 523.467 57.7862 Q522.564 56.8834 522.564 55.3441 Q522.564 53.7527 523.42 52.821 Q524.283 51.8835 525.741 51.8835 Q527.049 51.8835 527.807 52.7284 Q528.571 53.5675 528.571 55.0142 M527.506 54.7017 Q527.494 53.8279 527.014 53.3071 Q526.54 52.7862 525.753 52.7862 Q524.861 52.7862 524.323 53.2897 Q523.791 53.7932 523.71 54.7075 L527.506 54.7017 Z" fill="#000000" fill-rule="evenodd" fill-opacity="1" /><polyline clip-path="url(#clip140)" style="stroke:#0000ff; stroke-width:1; stroke-opacity:1; fill:none" stroke-dasharray="8, 5" points="
  425.255,69.3212 462.755,69.3212 
  "/>
<path clip-path="url(#clip140)" d="M 0 0 M469.005 65.0012 L474.468 65.0012 L474.468 65.9849 L470.174 65.9849 L470.174 68.5428 L474.289 68.5428 L474.289 69.5266 L470.174 69.5266 L470.174 72.6574 L474.572 72.6574 L474.572 73.6412 L469.005 73.6412 L469.005 65.0012 Z" fill="#000000" fill-rule="evenodd" fill-opacity="1" /><path clip-path="url(#clip140)" d="M 0 0 M479.821 67.3507 L479.821 68.3576 Q479.37 68.1261 478.884 68.0104 Q478.398 67.8947 477.877 67.8947 Q477.084 67.8947 476.685 68.1377 Q476.291 68.3808 476.291 68.8669 Q476.291 69.2372 476.575 69.4514 Q476.858 69.6597 477.715 69.8507 L478.079 69.9317 Q479.213 70.1747 479.688 70.6203 Q480.168 71.0602 480.168 71.853 Q480.168 72.7557 479.451 73.2824 Q478.739 73.809 477.489 73.809 Q476.968 73.809 476.401 73.7048 Q475.84 73.6064 475.215 73.4039 L475.215 72.3044 Q475.805 72.6111 476.378 72.7673 Q476.951 72.9178 477.512 72.9178 Q478.264 72.9178 478.67 72.6632 Q479.075 72.4027 479.075 71.934 Q479.075 71.5 478.779 71.2685 Q478.49 71.037 477.501 70.8229 L477.13 70.7361 Q476.141 70.5277 475.701 70.0995 Q475.261 69.6655 475.261 68.9132 Q475.261 67.9988 475.909 67.5011 Q476.557 67.0035 477.749 67.0035 Q478.34 67.0035 478.86 67.0903 Q479.381 67.1771 479.821 67.3507 Z" fill="#000000" fill-rule="evenodd" fill-opacity="1" /><path clip-path="url(#clip140)" d="M 0 0 M482.338 65.3194 L482.338 67.1597 L484.532 67.1597 L484.532 67.9872 L482.338 67.9872 L482.338 71.5057 Q482.338 72.2986 482.553 72.5243 Q482.772 72.75 483.438 72.75 L484.532 72.75 L484.532 73.6412 L483.438 73.6412 Q482.205 73.6412 481.737 73.184 Q481.268 72.721 481.268 71.5057 L481.268 67.9872 L480.487 67.9872 L480.487 67.1597 L481.268 67.1597 L481.268 65.3194 L482.338 65.3194 Z" fill="#000000" fill-rule="evenodd" fill-opacity="1" /><path clip-path="url(#clip140)" d="M 0 0 M485.649 67.1597 L486.713 67.1597 L486.713 73.6412 L485.649 73.6412 L485.649 67.1597 M485.649 64.6366 L486.713 64.6366 L486.713 65.9849 L485.649 65.9849 L485.649 64.6366 Z" fill="#000000" fill-rule="evenodd" fill-opacity="1" /><path clip-path="url(#clip140)" d="M 0 0 M492.877 68.4039 Q493.276 67.6863 493.831 67.3449 Q494.387 67.0035 495.139 67.0035 Q496.152 67.0035 496.702 67.7153 Q497.252 68.4213 497.252 69.7291 L497.252 73.6412 L496.181 73.6412 L496.181 69.7639 Q496.181 68.8322 495.851 68.3808 Q495.521 67.9294 494.844 67.9294 Q494.017 67.9294 493.536 68.4791 Q493.056 69.0289 493.056 69.978 L493.056 73.6412 L491.985 73.6412 L491.985 69.7639 Q491.985 68.8264 491.656 68.3808 Q491.326 67.9294 490.637 67.9294 Q489.821 67.9294 489.341 68.4849 Q488.86 69.0347 488.86 69.978 L488.86 73.6412 L487.79 73.6412 L487.79 67.1597 L488.86 67.1597 L488.86 68.1666 Q489.225 67.5706 489.734 67.287 Q490.244 67.0035 490.944 67.0035 Q491.65 67.0035 492.142 67.3623 Q492.639 67.721 492.877 68.4039 Z" fill="#000000" fill-rule="evenodd" fill-opacity="1" /><path clip-path="url(#clip140)" d="M 0 0 M501.314 70.3831 Q500.024 70.3831 499.526 70.6782 Q499.028 70.9733 499.028 71.6851 Q499.028 72.2523 499.399 72.5879 Q499.775 72.9178 500.417 72.9178 Q501.302 72.9178 501.835 72.2928 Q502.373 71.662 502.373 70.6203 L502.373 70.3831 L501.314 70.3831 M503.438 69.9433 L503.438 73.6412 L502.373 73.6412 L502.373 72.6574 Q502.008 73.2476 501.465 73.5312 Q500.921 73.809 500.134 73.809 Q499.138 73.809 498.548 73.2534 Q497.963 72.6921 497.963 71.7546 Q497.963 70.6608 498.693 70.1053 Q499.427 69.5497 500.88 69.5497 L502.373 69.5497 L502.373 69.4456 Q502.373 68.7106 501.887 68.3113 Q501.407 67.9062 500.533 67.9062 Q499.977 67.9062 499.451 68.0393 Q498.924 68.1724 498.438 68.4386 L498.438 67.4548 Q499.022 67.2292 499.572 67.1192 Q500.122 67.0035 500.643 67.0035 Q502.049 67.0035 502.743 67.7326 Q503.438 68.4618 503.438 69.9433 Z" fill="#000000" fill-rule="evenodd" fill-opacity="1" /><path clip-path="url(#clip140)" d="M 0 0 M505.608 65.3194 L505.608 67.1597 L507.801 67.1597 L507.801 67.9872 L505.608 67.9872 L505.608 71.5057 Q505.608 72.2986 505.822 72.5243 Q506.042 72.75 506.708 72.75 L507.801 72.75 L507.801 73.6412 L506.708 73.6412 Q505.475 73.6412 505.006 73.184 Q504.537 72.721 504.537 71.5057 L504.537 67.9872 L503.756 67.9872 L503.756 67.1597 L504.537 67.1597 L504.537 65.3194 L505.608 65.3194 Z" fill="#000000" fill-rule="evenodd" fill-opacity="1" /><path clip-path="url(#clip140)" d="M 0 0 M514.462 70.1342 L514.462 70.6551 L509.566 70.6551 Q509.636 71.7546 510.226 72.3333 Q510.822 72.9062 511.881 72.9062 Q512.495 72.9062 513.067 72.7557 Q513.646 72.6053 514.213 72.3044 L514.213 73.3113 Q513.64 73.5543 513.039 73.6817 Q512.437 73.809 511.817 73.809 Q510.267 73.809 509.358 72.9062 Q508.455 72.0034 508.455 70.4641 Q508.455 68.8727 509.312 67.941 Q510.174 67.0035 511.632 67.0035 Q512.94 67.0035 513.698 67.8484 Q514.462 68.6875 514.462 70.1342 M513.397 69.8217 Q513.386 68.9479 512.905 68.4271 Q512.431 67.9062 511.644 67.9062 Q510.753 67.9062 510.214 68.4097 Q509.682 68.9132 509.601 69.8275 L513.397 69.8217 Z" fill="#000000" fill-rule="evenodd" fill-opacity="1" /><path clip-path="url(#clip140)" d="M 0 0 M519.844 68.1435 L519.844 64.6366 L520.909 64.6366 L520.909 73.6412 L519.844 73.6412 L519.844 72.6689 Q519.508 73.2476 518.993 73.5312 Q518.484 73.809 517.767 73.809 Q516.592 73.809 515.851 72.8715 Q515.116 71.934 515.116 70.4062 Q515.116 68.8784 515.851 67.941 Q516.592 67.0035 517.767 67.0035 Q518.484 67.0035 518.993 67.287 Q519.508 67.5648 519.844 68.1435 M516.216 70.4062 Q516.216 71.581 516.696 72.2523 Q517.182 72.9178 518.027 72.9178 Q518.872 72.9178 519.358 72.2523 Q519.844 71.581 519.844 70.4062 Q519.844 69.2315 519.358 68.566 Q518.872 67.8947 518.027 67.8947 Q517.182 67.8947 516.696 68.566 Q516.216 69.2315 516.216 70.4062 Z" fill="#000000" fill-rule="evenodd" fill-opacity="1" /><path clip-path="url(#clip140)" d="M 0 0 M532.309 65.6667 L532.309 66.8993 Q531.719 66.3495 531.048 66.0775 Q530.382 65.8055 529.63 65.8055 Q528.148 65.8055 527.361 66.7141 Q526.574 67.6169 526.574 69.3298 Q526.574 71.037 527.361 71.9456 Q528.148 72.8483 529.63 72.8483 Q530.382 72.8483 531.048 72.5763 Q531.719 72.3044 532.309 71.7546 L532.309 72.9756 Q531.696 73.3923 531.007 73.6006 Q530.324 73.809 529.56 73.809 Q527.599 73.809 526.47 72.6111 Q525.342 71.4074 525.342 69.3298 Q525.342 67.2465 526.47 66.0486 Q527.599 64.8449 529.56 64.8449 Q530.336 64.8449 531.019 65.0532 Q531.707 65.2558 532.309 65.6667 Z" fill="#000000" fill-rule="evenodd" fill-opacity="1" /><path clip-path="url(#clip140)" d="M 0 0 M533.316 71.0833 L533.316 67.1597 L534.381 67.1597 L534.381 71.0428 Q534.381 71.9629 534.74 72.4259 Q535.099 72.8831 535.816 72.8831 Q536.678 72.8831 537.176 72.3333 Q537.68 71.7835 537.68 70.8345 L537.68 67.1597 L538.744 67.1597 L538.744 73.6412 L537.68 73.6412 L537.68 72.6458 Q537.292 73.2361 536.777 73.5254 Q536.268 73.809 535.59 73.809 Q534.474 73.809 533.895 73.1145 Q533.316 72.4201 533.316 71.0833 M535.996 67.0035 L535.996 67.0035 Z" fill="#000000" fill-rule="evenodd" fill-opacity="1" /><path clip-path="url(#clip140)" d="M 0 0 M543.617 68.1551 Q543.438 68.0509 543.224 68.0046 Q543.015 67.9525 542.761 67.9525 Q541.858 67.9525 541.372 68.5428 Q540.891 69.1273 540.891 70.2268 L540.891 73.6412 L539.821 73.6412 L539.821 67.1597 L540.891 67.1597 L540.891 68.1666 Q541.227 67.5764 541.765 67.2928 Q542.303 67.0035 543.073 67.0035 Q543.183 67.0035 543.316 67.0208 Q543.449 67.0324 543.611 67.0613 L543.617 68.1551 Z" fill="#000000" fill-rule="evenodd" fill-opacity="1" /><path clip-path="url(#clip140)" d="M 0 0 M543.97 67.1597 L545.099 67.1597 L547.124 72.5995 L549.149 67.1597 L550.278 67.1597 L547.847 73.6412 L546.401 73.6412 L543.97 67.1597 Z" fill="#000000" fill-rule="evenodd" fill-opacity="1" /><path clip-path="url(#clip140)" d="M 0 0 M556.939 70.1342 L556.939 70.6551 L552.043 70.6551 Q552.112 71.7546 552.703 72.3333 Q553.299 72.9062 554.358 72.9062 Q554.971 72.9062 555.544 72.7557 Q556.123 72.6053 556.69 72.3044 L556.69 73.3113 Q556.117 73.5543 555.515 73.6817 Q554.913 73.809 554.294 73.809 Q552.743 73.809 551.835 72.9062 Q550.932 72.0034 550.932 70.4641 Q550.932 68.8727 551.788 67.941 Q552.651 67.0035 554.109 67.0035 Q555.417 67.0035 556.175 67.8484 Q556.939 68.6875 556.939 70.1342 M555.874 69.8217 Q555.862 68.9479 555.382 68.4271 Q554.908 67.9062 554.12 67.9062 Q553.229 67.9062 552.691 68.4097 Q552.159 68.9132 552.078 69.8275 L555.874 69.8217 Z" fill="#000000" fill-rule="evenodd" fill-opacity="1" /></svg>
